<?xml version="1.0" encoding="utf-8"?>
<!-- Generator: Adobe Illustrator 17.1.0, SVG Export Plug-In . SVG Version: 6.00 Build 0)  -->
<!DOCTYPE svg PUBLIC "-//W3C//DTD SVG 1.1//EN" "http://www.w3.org/Graphics/SVG/1.1/DTD/svg11.dtd">
<svg version="1.1" id="Layer_1" xmlns="http://www.w3.org/2000/svg" xmlns:xlink="http://www.w3.org/1999/xlink" x="0px" y="0px"
	 viewBox="0 295 1000 400" enable-background="new 0 295 1000 400" xml:space="preserve">
<g>
	<path fill="#3C3C3C" d="M382.1,394.2c3.5,0,7,0.3,10.4-0.1c4-0.4,6.7,1.1,9.5,3.9c21.7,21.9,43.5,43.6,65.3,65.4
		c0.5,0.5,1,1.3,2.1,1.4c0-23.5,0-47,0-70.6c13.2,0,26.2,0,39.3,0c0,50.1,0,100.2,0,150.4c-5.1,0-10.2,0-15.2,0
		c-1,0-1.5-0.8-2.1-1.4c-22.7-22.7-45.4-45.3-68.1-68c-0.5-0.5-0.9-1.4-2.1-1.3c0,23.5,0,47,0,70.6c-13.1,0-26,0-39.1,0
		C382.1,494.6,382.1,444.5,382.1,394.2z"/>
	<path fill="#3C3C3C" d="M698.6,505.5c0,13,0,26,0,39.1c-13.3,0-26.4,0-39.6,0c0-50.1,0-100.1,0-150.1c0.6-0.5,1.4-0.3,2.1-0.3
		c22.7,0,45.4-0.1,68,0c4.4,0,8.5,1.5,12.5,3c16.3,6.3,27.9,17.4,33.9,33.9c2.8,7.6,3.1,15.6,2.5,23.7c-1.2,13.5-6.6,25.1-16.3,34.7
		c-1.1,1.1-0.5,1.7,0,2.5c9.8,16.9,19.7,33.8,29.5,50.7c0.3,0.5,0.8,1,0.8,1.8c-0.7,0.3-1.4,0.2-2.2,0.2c-13.7,0-27.3,0-41,0.1
		c-1.4,0-2.1-0.4-2.8-1.6c-7.2-12.1-14.4-24.1-21.6-36.2c-0.8-1.3-1.7-1.8-3.1-1.8c-6.9,0.1-13.7,0.1-20.6,0.1
		C700.1,505.2,699.4,505.1,698.6,505.5z M698.6,470.5c0.4,0,0.7,0.1,1,0.1c8.5,0,16.9,0,25.4,0c0.8,0,1.6-0.1,2.4-0.3
		c10.9-2.2,18-11.3,17.5-22.5c-0.5-11-10.4-20.5-21.4-20.5c-7.6,0-15.2,0-22.8,0c-0.7,0-1.4-0.3-2.1,0.3
		C698.6,441.9,698.6,456.1,698.6,470.5z"/>
	<path fill="#3C3C3C" d="M806.2,544.6c1.9-4.2,3.8-8.3,5.8-12.3c21.2-45.2,42.4-90.4,63.5-135.7c0.8-1.7,1.7-2.5,3.7-2.4
		c4.6,0.2,9.2,0.1,13.8,0.1c1.3,0,2,0.3,2.6,1.5c22.8,48.3,45.7,96.6,68.6,144.9c0.6,1.3,0.5,2.6,0.5,3.9c-0.5,0.5-1.2,0.3-1.8,0.3
		c-11.6,0-23.2,0-34.8,0.1c-1.4,0-2.1-0.5-2.7-1.8c-2.5-5.4-5.1-10.7-7.6-16.1c-0.5-1.2-1.2-1.6-2.6-1.6c-19.4,0.1-38.8,0.1-58.2,0
		c-1.4,0-2.1,0.4-2.7,1.7c-2.6,5.5-5.2,10.9-7.8,16.4c-0.4,0.9-0.9,1.3-1.9,1.3c-12.5-0.1-25.1-0.1-37.6-0.2
		C806.8,544.7,806.6,544.7,806.2,544.6z M886.1,459.2c-5,10.8-9.9,21.3-14.8,32c9.8,0,19.4,0,29.2,0
		C895.7,480.5,891,470.1,886.1,459.2z"/>
	<path fill="#3C3C3C" d="M643.2,394.2c0,13,0,25.8,0,38.8c-13.3,0-26.6,0-40.1,0c0,37.2,0,74.3,0,111.6c-13.3,0-26.3,0-39.5,0
		c0-37.2,0-74.3,0-111.5c-13.1,0-26,0-39.1,0c0-13,0-25.9,0-38.9C564,394.2,603.5,394.2,643.2,394.2z"/>
	<path fill="#3F3F3F" d="M535.4,614.4c-0.5,6.5-3.5,9.6-8.7,9.1c-0.3-1.1,0.2-2.2,0.1-3.3c3.9-1.3,4.4-2,4.4-6.1
		c0-2.5-0.1-5,0.1-7.4c0.3-5.1,4.4-8.2,9.4-7.2c3.3,0.7,5.2,3.2,5.4,7.2c0.1,1.6,0,3.2,0,4.9c2.4,0,4.6,0,7,0c0-3.9,0-7.6,0-11.5
		c1.5-0.5,2.8-0.3,4.3-0.1c0,3.8,0,7.6,0,11.6c2.3,0,4.4,0,6.7,0c0-6.7,0-13.4,0-20.3c1.5,0,2.9,0,4.3,0c0,4.5,0,9,0,13.9
		c0.7-0.9,1.1-1.4,1.6-1.9c1.9-2.1,4.1-3.6,6.9-3.9c3.9-0.4,6.9,2.2,7.2,6.4c0.1,1.9,0,3.8,0,5.9c16.8,0,33.5,0,50.4,0
		c0-3.8,0-7.7,0-11.6c1.5-0.2,2.9-0.3,4.4,0.1c0,3.8,0,7.6,0,11.5c2.2,0,4.3,0,6.6,0c0-3.8,0-7.7,0-11.6c1.5-0.3,2.8-0.2,4.3-0.1
		c0,3.9,0,7.7,0,11.7c2.5,0,4.6,0,7,0c0-6.8,0-13.5,0-20.3c1.5,0,2.8,0,4.2,0c0,8,0,15.8,0,23.7c-0.6,0.5-1.3,0.3-1.9,0.3
		c-39.5,0-79,0-118.5,0C538.8,615.4,537,615.3,535.4,614.4z M579.4,611.7c0-1.8,0.1-3.3,0-4.9c-0.2-3.7-2.3-4.8-5.5-2.8
		c-2.8,1.8-4.3,4.6-5.5,7.7C572.1,611.7,575.6,611.7,579.4,611.7z M541.5,611.8c0-2.2,0.1-4.2-0.1-6.1c-0.1-1.3-1-2.3-2.3-2.7
		c-1.2-0.3-2.1,0.5-2.7,1.4c-1.2,1.8-1.1,3.7-0.3,5.5c0.7,1.7,2.2,1.9,3.8,1.9C540.4,611.8,540.9,611.8,541.5,611.8z"/>
	<path fill="#3F3F3F" d="M853.9,594.3c0-0.9,0-1.5,0-2.4c2.2-0.8,4.6-0.5,7.2-0.6c0,3.4,0,6.8,0,10.2c0,3.4,0,6.8,0,10.2
		c2.1,0.2,3.9,0.2,5.9,0.1c0.1-4.9,1.7-7,5.4-7.2c4.1-0.2,5.5,1.4,6.4,7.1c0.7,0.3,1.4,0.2,2.2,0.1c0.3-2-0.1-3.9-0.8-5.8
		c-1.2-2.8-3.5-3.8-6.4-3.9c-2.5-0.1-4.9,0.4-7.4,0.9c-0.1-0.5-0.1-0.8-0.1-1.1c0.2-2.6,0.2-2.7,2.8-3.1c2.5-0.4,4.9-0.5,7.4-0.1
		c5.2,0.8,8.4,4.6,8.9,10.7c0.1,0.8,0.1,1.5,0.2,2.5c16.1,0,32.1,0,48.1,0c1.6-6-0.4-8-8.8-8.3c-0.3-1.1,0.2-2.1,0.2-3.3
		c3.7-0.4,7.2-0.5,10.4,1.7c3.6,2.4,2.8,6.3,3,9.9c2.3,0,4.5,0,6.8,0c0-6.8,0-13.4,0-20.2c1.5-0.4,2.9-0.1,4.4-0.2c0,8.1,0,16,0,24
		c-30.8,0-61.7,0-92.6,0c-0.4-1.2-0.2-2.5-0.2-3.7c-0.1-4.6,0-9.2,0-13.8C856.8,594.9,856.8,594.9,853.9,594.3z M874.3,611.7
		c0.2-2.5-0.4-3.7-1.6-3.7c-1.1,0-1.7,0.7-1.7,1.8C871,611.3,872,611.9,874.3,611.7z"/>
	<path fill="#3F3F3F" d="M796.2,611.7c-1.5-5.1-0.7-8.6,2.4-10.8c2.8-1.9,6.7-2,9.2-0.2c3,2.2,3.7,5.5,2,10.9c2.2,0,4.5,0,6.9,0
		c0-6.8,0-13.5,0-20.3c1.5,0,2.8,0,4.2,0c0,8,0,15.9,0,24c-26.5,0-52.9,0-79.3,0c-2.2,7.2-6.6,9.6-14.6,7.9
		c-0.2-1.1-0.3-2.3-0.2-3.6c4,0.1,8.7,1.9,10.2-4.2c-1.2-0.1-2.1-0.1-3-0.2c-4.3-0.2-6.7-2.5-7.1-6.4c-0.4-4.6,2-8.3,5.9-9.2
		c2.5-0.6,5-0.2,7.5,0.1c1.1,0.1,1,0.9,1,1.6c0,3.4,0,6.8,0,10.3C759.7,611.7,777.9,611.7,796.2,611.7z M806.4,607.3
		c-0.1-1.7-0.5-3.2-2.3-3.8c-1.4-0.5-2.6-0.1-3.5,1.1c-1.1,1.6-1.1,4.6,0.2,6.2c1.1,1.4,3.1,1.5,4.3,0.2
		C806.1,609.9,806.3,608.6,806.4,607.3z M736.8,603.3c-1.9-0.5-3.5-0.4-4.6,1.2c-1.2,1.8-1.2,3.8-0.2,5.7c1,2,2.9,1.8,4.7,1.7
		C736.8,608.9,736.8,606.1,736.8,603.3z"/>
	<path fill="#424242" d="M425.3,594.3c0-0.9,0-1.7,0-2.6c2.3-0.5,4.7-0.5,7.2-0.4c0,6.8,0,13.4,0,20.3c7.6,0,15,0,22.6,0
		c0-3.7,0-7.6,0-11.4c1.5-0.5,2.9-0.3,4.3-0.3c0.3,1.7,0,3.3,0.1,5c0.9-0.3,1.1-1.1,1.7-1.6c2.4-2.5,5-4.4,8.8-3.8
		c3.3,0.6,5.1,2.7,5.3,6c0.1,2,0,3.9,0,6.1c2.4,0,4.6,0,7.1,0c0-3.9,0-7.7,0-11.6c1.5-0.2,2.9-0.3,4.4,0.1c0,5.1,0,10,0,15.2
		c-19.5,0-38.8,0-58.4,0c-0.3-1.5-0.2-3-0.2-4.5c-0.1-4.3,0-8.6,0-13C428.1,594.9,428.1,594.9,425.3,594.3z M459.7,611.7
		c3.7,0,7.3,0,11.1,0c-0.2-2.2,0.2-4.3-0.3-6.5c-0.3-1.5-1.2-2.1-2.7-2.1c-1.2,0.1-2.2,0.5-3.1,1.2
		C462.2,606.2,460.8,608.9,459.7,611.7z"/>
	<path fill="#3F3F3F" d="M723.7,615.5c-4.5-0.5-9.3,1.2-13.3-2.5c-1,1.9-2.7,2.5-4.7,2.5c-2.4,0-4.8,0-7.5,0c0-2,0-3.9,0-5.9
		c0-0.8,0.1-1.6,0-2.4c-0.2-3.4-1.3-4.3-4.9-3.8c0,3.9,0,7.9,0,12.1c-4.6-0.1-9,0.4-13.3-0.5c-6.2-1.3-9.6-7.7-7.2-13.7
		c0.2-0.4,0.4-0.6,0.9-0.7c1.2-0.2,2.5-0.4,3.9-0.6c-0.7,2-0.9,3.9-0.8,5.9c0.2,3,1.7,4.8,4.5,5.5c0.7,0.2,1.4,0.4,2.1,0.4
		c1.7,0.1,3.5,0,5.4,0c0-3.3,0.1-6.6-0.1-9.8c-0.1-1.5,0.4-2.1,1.9-2.2c2.1-0.2,4.2-0.5,6.4-0.1c3.3,0.6,5.1,2.5,5.3,5.8
		c0.1,2,0,4,0,6.1c1.5,0.4,2.9,0.3,4.2,0.2c0.9-0.1,1.4-0.9,1.8-1.7c0.4-1,0.4-2,0.4-2.9c0.3-5.4,4.4-8.6,9.7-7.4
		c2.9,0.6,4.9,3.1,5,6.7C723.8,609.2,723.7,612.2,723.7,615.5z M719.3,611.8c0-2.2,0.1-4.2-0.1-6.2c-0.1-1.4-1-2.5-2.6-2.7
		c-1.4-0.2-2.3,0.8-2.9,2c-1.7,3.7,0.4,6.8,4.3,6.8C718.5,611.8,718.8,611.8,719.3,611.8z"/>
	<path fill="#484848" d="M397.3,572.8c0-5.8,0-11.5,0-17.4c1.3-0.2,2.3-0.2,3.6-0.1c0,7.6,0,15.2,0,22.9c-1.4,0.4-3,0.1-4.6,0.2
		c-0.9,0.1-1-0.8-1.3-1.3c-2.8-5.2-5.5-10.3-8.3-15.5c-0.2-0.3-0.4-0.7-0.9-1c0,5.8,0,11.7,0,17.6c-1.3,0.3-2.4,0.2-3.7,0.1
		c0-7.7,0-15.3,0-23.1c1.4,0,2.9,0.1,4.3,0c1-0.1,1.2,0.7,1.5,1.3c2.6,4.9,5.2,9.7,7.8,14.6c0.3,0.6,0.6,1.1,1,1.7
		C397,572.9,397.1,572.9,397.3,572.8z"/>
	<path fill="#3F3F3F" d="M705.2,562.5c0.1-0.8,0.2-1.3,0.2-1.9c1.1,0,2.2,0,3.2,0c0.3,0.2,0.4,0.5,0.4,0.9c0,5.2,0.1,10.4,0,15.6
		c-0.1,5.7-3.6,8.8-9.3,8.4c-1.2-0.1-2.4-0.2-3.5-0.6c-2.5-0.9-3.9-2.9-3.8-5.7c1-0.3,2.1-0.1,3.1-0.1c1.5,3,3.4,4,6.4,3.3
		c2.6-0.6,3.6-2.5,3.6-6.8c-1.4,2.5-3.6,3-5.8,3c-2.3,0-4.4-0.8-6-2.7c-3-3.7-2.3-11.1,1.2-14.1
		C697.1,559.8,703.1,559.2,705.2,562.5z M705.3,569.3c0.1-1-0.1-1.9-0.3-2.8c-0.6-2.2-2.2-3.6-4.4-3.6c-2.2-0.1-3.9,1.1-4.6,3.3
		c-0.7,2.3-0.7,4.6,0.2,6.8c0.8,1.9,2.3,2.9,4.3,2.9c2.1-0.1,3.5-1.2,4.2-3.1C705.2,571.7,705.3,570.5,705.3,569.3z"/>
	<path fill="#424242" d="M617.6,560.7c1.1,0,2.2,0,3.3,0c0.5,0.5,0.1,1.1,0.3,1.4c3.6-3.1,6.9-2.8,10.1,0.9c1.2-2.5,3.3-3.2,5.9-2.9
		c2.5,0.3,4.4,1.9,4.7,4.2c0.5,4.6,0.2,9.3,0.3,14.1c-1.3,0-2.5,0-3.8,0c0-3.5,0-6.9,0-10.4c0-0.9,0-1.8-0.2-2.6
		c-0.3-1.4-1.2-2.3-2.8-2.5c-1.4-0.1-2.5,0.6-3,1.8c-0.6,1.4-0.8,2.9-0.8,4.5c0,3,0,6,0,9.1c-1.2,0.3-2.3,0.2-3.7,0.1
		c0-3.4,0-6.7,0-10c0-1.1-0.1-2.1-0.3-3.1c-0.4-1.4-1.2-2.2-2.7-2.3c-1.4-0.1-2.5,0.5-3,1.8c-0.6,1.4-0.8,2.8-0.8,4.3
		c0,3,0,6.1,0,9.2c-1.2,0.5-2.3,0.2-3.6,0.3C617.6,572.5,617.6,566.6,617.6,560.7z"/>
	<path fill="#424242" d="M654.3,555.4c3.6,0,7.2-0.2,10.7,0.1c4.5,0.3,6.8,3.4,6,7.6c-0.4,2-1.8,3.2-3.7,4.1c4,2.8,2,7.6,4.1,10.9
		c-0.1,0.5-0.3,0.5-0.5,0.5c-3.6,0.2-3.8,0-4.3-3.7c-0.1-0.3-0.1-0.6-0.1-1c-0.5-4.3-1.2-5-5.5-4.9c-0.9,0-1.9-0.2-3,0.2
		c0,3,0,6.1,0,9.3c-1.3,0-2.5,0-3.6,0C654.3,570.8,654.3,563.2,654.3,555.4z M658,565.7c2.1,0,4.3,0.3,6.5-0.2
		c1.8-0.3,2.7-1.8,2.6-3.9c-0.1-1.9-1-2.9-2.9-3.2c-2-0.3-4.1-0.2-6.2-0.1C658,560.9,658,563.2,658,565.7z"/>
	<path fill="#424242" d="M825.5,578.4c1.3-3.6,2.5-7,3.7-10.5c1.3-3.7,2.7-7.4,3.9-11.1c0.4-1.2,1-1.6,2.3-1.5c3.1,0.1,3.1,0,4.2,3
		c2.1,5.9,4.2,11.9,6.2,17.9c0.2,0.6,0.7,1.3,0.5,2.1c-0.1,0.1-0.2,0.2-0.3,0.2c-3.4,0.2-3.4,0.2-4.4-3.1c-1.4-4.5-1.4-4.5-6.1-4.5
		c-3.4,0-3.4,0-4.5,3.4c-0.1,0.4-0.3,0.7-0.4,1.1C829.4,578.6,829.4,578.6,825.5,578.4z M833,567.8c2.1,0,3.9,0.2,5.9-0.1
		c-1-3-1.8-5.8-2.8-9C835,561.9,834,564.7,833,567.8z"/>
	<path fill="#484848" d="M883.4,578.3c-1.4,0.3-2.5,0.2-3.7,0.1c0-8.3,0-16.4,0-24.7c1.2,0,2.4,0,3.7,0c0,2.9,0,5.8,0,9.1
		c2.1-2.9,4.8-3.1,7.6-2.5c2.4,0.5,3.8,2.1,4.1,4.5c0.5,4.4,0.2,8.9,0.2,13.4c-1.3,0.2-2.5,0.2-3.9,0.1c0-3,0-6,0-9
		c0-0.9,0-1.9,0-2.8c-0.1-1.7-0.6-3-2.3-3.5c-1.7-0.5-3.5,0.2-4.5,1.7c-0.9,1.3-1.2,2.8-1.2,4.4
		C883.4,572.2,883.4,575.2,883.4,578.3z"/>
	<path fill="#424242" d="M385.6,599.9c-0.6,2.1-1,3.9-0.8,5.8c0.2,3.1,1.7,4.9,4.7,5.7c2.8,0.7,5.7,0.4,8.8,0.5c0-3.9,0-7.7,0-11.6
		c1.4-0.4,2.8-0.3,4.2-0.2c0,5.1,0,10.2,0,15.4c-4.7-0.2-9.4,0.4-14-0.4c-8.2-1.5-8.9-7.9-7.6-13.7c0.1-0.5,0.5-0.7,1-0.8
		C383,600.4,384.2,600.2,385.6,599.9z"/>
	<path fill="#424242" d="M405.1,566.3c0.2-2.9,1.6-4.7,4.2-5.7c1.9-0.7,3.9-0.6,5.9-0.1c2.1,0.6,3.3,1.9,3.6,4.1
		c0.3,2.1,0.3,4.3,0.3,6.4c0,2.5,0,4.9,0,7.5c-1.1,0-2.1,0-3.2,0c-0.6-0.4-0.1-1.2-0.5-1.6c-0.1,0.1-0.3,0.1-0.4,0.2
		c-1.3,1.8-4.1,2.5-6.8,1.7c-2.2-0.6-3.6-2.3-3.7-4.6c-0.1-2.5,1.2-4.4,3.6-5.4c1.1-0.5,2.3-0.7,3.5-0.8c1.2-0.1,2.3,0,3.5,0
		c0.5-3.7-0.6-5.2-3.5-4.7c-1,0.2-2,0.7-2.1,1.5c-0.3,2.2-1.8,1.9-3.3,1.8C405.9,566.3,405.6,566.3,405.1,566.3z M415.2,570.2
		c-1.9-0.2-3.5-0.2-5,0.6c-1.3,0.7-2,1.8-1.7,3.3c0.3,1.5,1.5,2.1,3,2.1c1.9,0.1,3.5-1.3,3.7-3.2
		C415.3,572.1,415.2,571.2,415.2,570.2z"/>
	<path fill="#424242" d="M756.1,578.3c-3,0.6-3.3,0.5-3.7-1.8c-1.3,2.3-3.5,2.5-5.7,2.3c-2.8-0.1-4.7-1.7-5.1-4.2
		c-0.5-2.7,0.7-5,3.3-6.1c2.2-1,4.6-1,7-1c0.7-2.5,0.3-4.1-1.4-4.6c-2-0.6-3.5,0.1-4.4,2.5c-0.3,0.6-0.5,0.9-1.2,0.9
		c-0.9,0-1.7,0-2.6,0c-0.1-2.8,1.3-4.8,3.8-5.7c1.7-0.6,3.4-0.6,5.1-0.4c3,0.5,4.5,2.1,4.7,5.3c0.1,2.6,0.1,5.2,0.1,7.8
		C756.1,575,756.1,576.6,756.1,578.3z M752.2,570.2c-1.9-0.2-3.6-0.2-5.1,0.6c-1.2,0.7-1.8,1.7-1.5,3.1c0.3,1.4,1.3,1.9,2.6,2.1
		c1.9,0.3,3.6-0.9,4.1-2.8C752.4,572.4,752.5,571.4,752.2,570.2z"/>
	<path fill="#424242" d="M492,567.7c0.4-3.7-0.7-5.1-3.5-4.7c-1,0.1-2,0.6-2.2,1.5c-0.4,2.4-2.1,1.9-3.6,1.9c-0.2,0-0.4-0.1-0.6-0.1
		c-0.2-3.6,2.8-5.7,5.4-6c1.4-0.2,2.8-0.2,4.2,0.2c2.3,0.6,3.6,2,4,4.4c0.3,2.2,0.1,4.4,0.2,6.6c0.1,1.1,0,2.2,0,3.4
		c0.1,1.1,0.1,2.2,0.2,3.4c-2.9,0.8-3.5,0.6-3.8-1.5c-1.9,2.4-4.4,2.6-7,2c-2.3-0.5-3.7-2-3.9-4.4c-0.3-2.1,0.7-4.2,2.6-5.2
		c1.5-0.9,3.2-1.3,5-1.3C489.9,567.7,490.9,567.7,492,567.7z M492.1,570.3c-2.2-0.3-3.8-0.2-5,0.4c-1.4,0.7-2.1,1.9-1.8,3.4
		c0.4,1.6,1.7,2,3,2c1.8,0,3.1-1.2,3.6-2.9C492.2,572.3,492.3,571.3,492.1,570.3z"/>
	<path fill="#424242" d="M685.5,572.6c1.3,0,2.4,0,3.5,0c-0.7,3.7-3.1,5.9-6.8,6.2c-4.1,0.4-7.3-1.4-8.6-5c-1-2.6-1-5.2-0.2-7.8
		c1.3-4.2,5.1-6.5,9.4-5.9c3.8,0.6,6.4,3.7,6.5,8.1c0,0.6,0,1.3,0,2.2c-4.2,0-8.3,0-12.4,0c0,3.1,1.2,5.1,3.5,5.5
		C682.7,576.5,684.4,575.4,685.5,572.6z M677,567.7c2.9,0,5.8,0,8.6,0c-0.7-3.7-1.8-4.9-4.3-4.8C678.9,563,677.5,564.6,677,567.7z"
		/>
	<path fill="#3F3F3F" d="M549.3,570.5c-4.3,0-8.3,0-12.4,0c-0.1,3,1.2,5,3.4,5.5c2.3,0.5,3.9-0.6,5.1-3.4c1.2,0,2.3,0,3.5,0
		c-0.6,3.5-2.7,5.6-6.4,6.2c-3.6,0.6-7-0.9-8.5-3.8c-1.5-2.9-1.7-6-0.6-9.1c1.3-4.1,5.1-6.4,9.3-5.8c3.8,0.5,6.4,3.7,6.5,8.1
		C549.3,568.9,549.3,569.6,549.3,570.5z M545.5,567.9c-0.6-3.8-2-5.2-4.7-4.9c-2.3,0.3-3.8,2.3-3.7,4.9
		C539.8,567.9,542.6,567.9,545.5,567.9z"/>
	<path fill="#3F3F3F" d="M576.4,570.5c-4.2,0-8.1,0-12.1,0c-0.3,2.7,0.9,4.7,3,5.4c2.3,0.7,4.1-0.4,5.5-3.3c1.1,0,2.2,0,3.4,0
		c-0.4,4.3-4.5,7-9.3,6.2c-5.7-1-8.6-7.9-5.8-13.9c1.7-3.6,5.8-5.5,9.7-4.6c3.4,0.9,5.1,3.2,5.7,6.5
		C576.6,567.9,576.6,569.2,576.4,570.5z M572.5,567.9c-0.3-3.5-1.7-5.1-4.4-5c-2.5,0.2-4.1,2.2-3.9,5
		C567,567.9,569.7,567.9,572.5,567.9z"/>
	<path fill="#424242" d="M596.5,569.4c0-5.7,3.5-9.2,9-9.2c5.4,0,8.9,3.7,8.9,9.3c0,5.7-3.6,9.4-9,9.4
		C599.8,578.9,596.5,575.2,596.5,569.4z M600.5,569.5c-0.1,1.3,0.2,2.6,0.7,3.8c0.8,1.8,2.2,2.8,4.2,2.8c1.9,0,3.4-0.9,4.1-2.6
		c1.2-2.8,1.2-5.5-0.2-8.3c-0.9-1.6-2.3-2.3-4.1-2.3c-1.8,0.1-3,1-3.8,2.4C600.7,566.6,600.4,567.9,600.5,569.5z"/>
	<path fill="#424242" d="M441.6,569.5c0-5.8,3.4-9.3,8.8-9.3c5.5,0,9,3.6,9,9.4c0,5.7-3.5,9.3-8.9,9.3
		C445,578.9,441.6,575.3,441.6,569.5z M445.5,569.5c-0.1,1.1,0.1,2.2,0.5,3.3c0.7,2,2.3,3.3,4.3,3.3c1.9,0.1,3.7-1,4.4-3.1
		c1-2.5,1-5.1-0.2-7.5c-0.8-1.7-2.1-2.5-3.9-2.6c-1.9-0.1-3.3,0.9-4.2,2.5C445.7,566.6,445.5,568,445.5,569.5z"/>
	<path fill="#424242" d="M787.8,569.4c0,5.9-3.4,9.4-8.9,9.4c-5.4,0-8.9-3.7-8.9-9.3c-0.1-5.8,3.5-9.4,9-9.4
		C784.4,560.1,787.8,563.7,787.8,569.4z M783.8,569.9c0-1.7-0.2-3-0.8-4.3c-0.9-1.7-2.2-2.6-4.1-2.6s-3.4,0.9-4.2,2.6
		c-1.3,2.7-1.2,5.5,0.2,8.3c0.9,1.6,2.3,2.4,4.1,2.3c1.8-0.1,3.1-1,3.9-2.6C783.6,572.3,783.8,571,783.8,569.9z"/>
	<path fill="#424242" d="M898.2,569.4c0.1-5.8,3.5-9.3,9.2-9.2c5.3,0.1,8.9,3.9,8.8,9.5c-0.1,5.8-3.7,9.3-9.2,9.2
		C901.6,578.8,898.2,575.1,898.2,569.4z M902.2,569.5c-0.1,1.4,0.2,2.7,0.8,3.9c0.9,1.7,2.2,2.7,4.1,2.7c2,0,3.5-1,4.2-2.8
		c1.1-2.6,1.1-5.3-0.1-7.9c-0.8-1.6-2.1-2.5-4-2.5s-3.2,0.9-4.1,2.4C902.4,566.6,902.1,568.1,902.2,569.5z"/>
	<path fill="#484848" d="M848.3,560.7c1.3-0.2,2.4-0.2,3.8-0.1c0,2.5,0,4.9,0,7.4c0,1.4,0,2.9,0.1,4.4c0.2,2.1,1.1,3.1,2.9,3.5
		c1.7,0.4,3.3-0.4,4.2-2c0.7-1.3,1-2.8,1-4.2c0-2.9,0-5.9,0-8.9c1.2-0.5,2.4-0.3,3.7-0.2c0,5.9,0,11.7,0,17.7
		c-1.1,0.3-2.2,0.1-3.3,0.1c-0.7-0.5-0.2-1.3-0.6-1.9c-2,2.7-4.8,2.7-7.7,2c-2-0.5-3.5-1.9-3.7-4C848,570,848.5,565.4,848.3,560.7z"
		/>
	<path fill="#424242" d="M800.2,561c1.2-0.7,2.5-0.3,3.7-0.4c1-0.1,0.9,0.9,1.1,1.4c1.2,3.8,2.5,7.6,3.7,11.4c0.2,0.5,0.3,1,0.6,1.8
		c1.7-5.1,3.1-9.8,4.7-14.5c1.3-0.2,2.6-0.2,4.1,0c-1,2.6-1.9,5.1-2.8,7.5c-1.7,4.3-3.1,8.6-5,12.8c-1.5,3.7-3.9,4.8-7.7,4.1
		c-0.3-0.8-0.3-1.7,0-2.6c0.6-0.1,1.2-0.1,1.8-0.2c2-0.4,3.3-2.6,2.6-4.3c-2.1-5.5-4.2-10.9-6.2-16.4
		C800.5,561.4,800.3,561.2,800.2,561C800.2,560.9,800.2,561,800.2,561z"/>
	<path fill="#424242" d="M952.1,560.7c1.5,4.7,3.1,9.5,4.7,14.6c1.4-4.4,2.7-8.4,3.9-12.4c0.8-2.5,0.8-2.5,3.7-2.2
		c0.2,1,0.3,2-0.1,3.1c-2.2,5.7-4.3,11.5-6.6,17.1c-1.5,3.8-3.8,4.9-7.8,4.3c-0.3-0.8-0.2-1.7-0.1-2.5c1-0.4,2-0.1,2.9-0.6
		c1.4-0.9,2.1-2.7,1.5-4.3c-1.9-5-3.8-10-5.8-15.1c-0.3-0.7-0.7-1.3-0.6-2.1C949.5,560.6,950.7,560.5,952.1,560.7z"/>
	<path fill="#424242" d="M474.4,578.5c0-3.9,0-7.5,0-11.1c0-2.8-0.9-4.2-3-4.5c-2.2-0.3-3.8,0.9-4.6,3.4c-0.5,1.7-0.5,3.4-0.5,5.1
		c0,2.2,0,4.5,0,6.8c-1.3,0.2-2.4,0.2-3.6,0.1c0-5.9,0-11.7,0-17.7c1.1-0.3,2.2-0.1,3.3-0.1c0.6,0.5,0.2,1.3,0.6,1.9
		c2.3-2.6,6.5-3.1,9.2-1.4c1.4,1,2.3,2.3,2.3,4c0.1,4.4,0,8.8,0,13.2C476.8,578.7,475.7,578.4,474.4,578.5z"/>
	<path fill="#3F3F3F" d="M713.3,560.7c1.3,0,2.3,0,3.6,0c0,3.1,0,6.1,0,9.2c0,1.1,0,2.1,0.2,3.2c0.3,1.8,1.4,2.7,3,3
		c1.7,0.3,3-0.4,3.9-1.9c1-1.7,1.1-3.5,1.2-5.4c0.1-2.7,0-5.3,0-8.1c1.3,0,2.3,0,3.6,0c0,5.9,0,11.7,0,17.7c-1.1,0-2.2,0-3.3,0
		c-0.5-0.6,0-1.4-0.5-2.1c-2,3-4.8,3-7.7,2.2c-2.3-0.6-3.8-2.3-3.9-4.7C713.2,569.5,713.3,565.2,713.3,560.7z"/>
	<path fill="#424242" d="M594.8,566.9c-1.1,0-1.9-0.1-2.6,0s-1.1-0.2-1.4-1c-1-2.4-2.1-3.1-4.2-2.9c-1.8,0.2-3.2,1.5-3.7,3.6
		c-0.6,2.2-0.5,4.5,0.3,6.7c0.6,1.7,1.8,2.8,3.7,2.9c1.8,0,3-0.9,3.7-2.6c0.9-2.2,2.6-0.6,3.9-1.1c-0.3,4.4-4.4,7.2-9.2,6.4
		c-4.2-0.7-6.4-3.5-6.8-8.6c-0.5-6.8,4.9-11.6,11.1-9.8C592.7,561.4,594.3,563.5,594.8,566.9z"/>
	<path fill="#3F3F3F" d="M417.6,591.4c1.6,0,2.9,0,4.4,0c0,3.3,0,6.5,0,9.6c0,2.2,0,4.4,0,6.6c-0.1,5.1-2.5,7.7-7.6,8.2
		c-1.8,0.2-3.6,0-5.4-0.3c-1-0.2-1.4-0.5-1.2-1.5c0.2-0.9,0.2-1.9,0.3-2.9c1.9,0.4,3.7,1,5.5,0.8c3-0.2,3.9-1.1,3.9-4.1
		C417.6,602.3,417.6,597,417.6,591.4z"/>
	<path fill="#3F3F3F" d="M491.9,615.2c0.1-1.5,0-2.8,0.4-4.2c1.9,0.5,3.7,1,5.5,0.8c2.8-0.2,3.8-1.2,3.8-3.9c0-4.8,0-9.6,0-14.4
		c0-0.6-0.2-1.3,0.2-2c1.3,0,2.6,0,3.9,0c0.5,0.5,0.3,1.1,0.3,1.7c0,4.8,0,9.6,0,14.4c0,5.2-2.5,7.8-7.6,8.3
		C496.3,615.9,494.2,615.7,491.9,615.2z"/>
	<path fill="#424242" d="M534,555.5c0.2,0.9,0.2,1.7,0,2.8c-2.5,0-5.1,0-7.8,0c0,6.8,0,13.3,0,20c-1.3,0.4-2.3,0.2-3.6,0.1
		c0-6.7,0-13.2,0-20c-2.7,0-5.3,0-8,0c0-1.1,0-1.9,0-2.9C521,555.5,527.5,555.5,534,555.5z"/>
	<path fill="#484848" d="M516.6,591.2c0,8.2,0,16,0,24c-1.4,0.4-2.9,0.1-4.4,0.2c0-5.5,0-10.8,0-16.2c0-0.5,0-1.1,0-1.6
		c0-2.9,0-2.9-2.7-3.3c-0.4-0.8-0.2-1.7-0.1-2.6C511.7,591.1,514,591.3,516.6,591.2z"/>
	<path fill="#484848" d="M824.8,594.4c-0.3-0.9-0.2-1.7-0.1-2.6c2.3-0.8,4.7-0.5,7.2-0.6c0,8.1,0,16,0,24.1
		c-1.4,0.3-2.7,0.1-4.3,0.1c0-2.4,0-4.6,0-6.9c0-3.7,0-7.5,0-11.2C827.5,594.7,827.5,594.7,824.8,594.4z"/>
	<path fill="#484848" d="M953.2,591.7c2.3-0.6,4.7-0.5,7.2-0.4c0,8,0,16,0,23.9c-1.3,0.4-2.7,0.1-4,0.2c-0.6-0.6-0.4-1.3-0.4-1.8
		c0-5.3,0-10.7,0-16c0-2.8,0-2.8-2.8-3.3C953.2,593.5,953.2,592.7,953.2,591.7z"/>
	<path fill="#424242" d="M840.7,623.5c-0.2-1.1,0-2.1,0.2-3.1c0.2-0.1,0.3-0.2,0.4-0.2c4.5,0.2,5.2-1.5,5.2-5.5
		c0.1-4.2,0-8.4,0-12.6c0-0.6,0-1.3,0-2c1.5-0.2,2.8-0.2,4.3,0c0,2.7,0,5.2,0,7.8c0,2.7,0.1,5.4,0,8.2c-0.2,5-2.8,7.6-7.7,7.7
		C842.3,623.8,841.5,624,840.7,623.5z"/>
	<path fill="#3F3F3F" d="M876.1,576.1c0.2,0.7,0.1,1.4,0.1,2.2c-0.7,0.3-1.6,0.4-2.5,0.4c-3.2,0.1-4.3-1.1-4.4-4.3
		c0-3.6,0-7.2,0-10.7c-0.7-0.7-1.7-0.1-2.4-0.6c-0.3-0.7-0.2-1.5-0.1-2.3c0.8-0.1,1.5-0.2,2.3-0.2c0-1.3,0-2.6,0-3.8
		c1.3-0.5,2.5-0.2,3.8-0.3c0,1.4,0,2.8,0,4.1c1.2,0.1,2.1,0.1,3.1,0.2c0.5,0.8,0.3,1.6,0.2,2.4c-1,0.5-2.1-0.1-3.3,0.4
		c0,3.5-0.1,7.1,0.1,10.7C873.1,575.6,873.4,575.7,876.1,576.1z"/>
	<path fill="#3C3C3C" d="M431.1,576.1c0,0.7,0,1.5,0,2.3c-0.7,0.1-1.4,0.2-2,0.2c-3.5,0.2-4.7-1-4.7-4.4c0-3.5,0-7,0-10.5
		c-0.7-0.7-1.7-0.2-2.4-0.6c-0.2-0.7-0.3-1.5,0.1-2.4c0.7-0.1,1.4-0.2,2.2-0.2c0-1.3,0-2.6,0-3.8c1.3-0.5,2.5-0.2,3.7-0.3
		c0,1.4,0,2.8,0,4.1c1.2,0.1,2.1,0.1,3.1,0.2c0.5,0.8,0.3,1.6,0.2,2.5c-1,0.1-2,0.1-3.3,0.2c0,3.6-0.1,7.2,0.1,10.8
		C428.1,575.6,428.4,575.7,431.1,576.1z"/>
	<path fill="#3F3F3F" d="M761.3,563.5c-0.9-0.1-1.5-0.1-2.2-0.1c-0.4-0.8-0.2-1.6-0.1-2.5c0.7-0.1,1.4-0.2,2.3-0.2
		c0-1.3,0-2.5,0-3.8c1.2-0.4,2.4-0.1,3.7-0.2c0,1.4,0,2.7,0,3.8c1.1,0.7,2.2,0.1,3.4,0.6c0,0.7,0,1.4,0,2.3c-1,0.5-2.1-0.1-3.3,0.4
		c0,3.5-0.1,7.1,0,10.7c0.1,1.8,1.6,1.6,2.8,1.7c0.4,0.9,0.3,1.7,0.2,2.4c-0.6,0.4-1.3,0.3-1.9,0.4c-3.6,0.2-4.9-1-4.9-4.6
		C761.3,570.7,761.3,567.2,761.3,563.5z"/>
	<path fill="#3F3F3F" d="M939.8,563.5c-1-0.1-1.6-0.1-2.3-0.2c-0.3-0.9-0.2-1.6-0.1-2.4c0.7-0.4,1.5-0.1,2.3-0.4c0-1.2,0-2.5,0-3.9
		c1.3,0,2.4,0,3.6,0c0,1.3,0,2.6,0,3.8c1.1,0.6,2.2,0.1,3.3,0.4c0.3,0.7,0.2,1.5,0.1,2.3c-1,0.6-2.1,0-3.4,0.5c0,3.5-0.1,7,0.1,10.6
		c0.1,1.8,1.6,1.7,2.9,1.7c0.4,0.8,0.2,1.6,0.2,2.5c-0.8,0.1-1.5,0.3-2.3,0.3c-3.3,0.1-4.5-1.1-4.5-4.4
		C939.8,570.8,939.8,567.2,939.8,563.5z"/>
	<path fill="#484848" d="M552.8,553.8c1.2,0,2.3,0,3.3,0c0.5,0.7,0.3,1.4,0.3,2.2c0,5.9,0.1,11.7,0,17.6c0,1.3,0.1,2.5,1.9,2.2
		c0.2,1,0.3,1.8,0,2.7c-0.8,0.1-1.5,0.2-2.3,0.2c-2.3-0.1-3.3-1-3.3-3.3c-0.1-6.8,0-13.7,0-20.5
		C552.6,554.5,552.7,554.3,552.8,553.8z"/>
	<path fill="#3C3C3C" d="M733.4,553.9c1.2,0,2.2,0,3.3,0c0.6,0.6,0.3,1.4,0.3,2.1c0,5.8,0,11.6,0,17.4c0,1.4,0.1,2.6,2,2.5
		c0.3,0.9,0.2,1.6,0.1,2.5c-1,0.3-2,0.3-3,0.2c-1.7-0.1-2.7-1.1-2.7-2.7C733.4,568.6,733.4,561.3,733.4,553.9z"/>
	<path fill="#3C3C3C" d="M506,575.8c0.2,1,0.2,1.8-0.1,2.6c-0.9,0.3-1.8,0.3-2.7,0.2c-1.9-0.2-2.8-1-2.8-2.9c-0.1-7.1,0-14.2,0-21.3
		c0-0.1,0.1-0.2,0.2-0.4c1-0.3,2.1-0.1,3.1-0.2c0.6,0.7,0.3,1.4,0.3,2.1c0,5.9,0.1,11.7,0,17.6C504,574.9,504.1,576.1,506,575.8z"/>
	<path fill="#484848" d="M919.4,560.6c1.2,0,2.3,0,3.3,0c0.5,0.6,0.1,1.3,0.5,2.1c1.2-1.9,2.7-3.1,5-2.5c0.4,0.9,0.1,1.9,0.3,2.9
		c-1.6,0.2-3.3,0.3-4.3,1.7c-1.1,1.5-1.1,3.4-1.1,5.2c0,2.7,0,5.4,0,8.2c-1.2,0.3-2.3,0.2-3.6,0.2
		C919.4,572.5,919.4,566.6,919.4,560.6z"/>
	<path fill="#3F3F3F" d="M408.7,609.2c0-5,0-9.7,0-14.4c-0.9-0.6-1.8-0.1-2.6-0.5c-0.5-2.7-0.5-2.9,2.2-3c1.5-0.1,3-0.2,4.8,0.1
		c0,3.1,0,6.2,0,9.3c0,1.9-0.1,3.7,0.1,5.6c0.1,1.4-0.3,2.2-1.9,2.4C410.5,608.9,409.7,609.1,408.7,609.2z"/>
	<path fill="#3C3C3C" d="M492.8,594.7c-1.1-0.1-1.9-0.2-2.7-0.2c-0.3-0.9-0.2-1.7-0.1-2.6c1.2-0.6,2.3-0.5,3.5-0.5
		c1.1-0.1,2.2,0,3.6,0c0,1.9,0,3.7,0,5.5c0,3.1-0.1,6.2,0.1,9.4c0.1,1.5-0.3,2.4-1.9,2.5c-0.8,0.1-1.5,0.3-2.5,0.5
		C492.8,604.4,492.8,599.6,492.8,594.7z"/>
	<path fill="#3F3F3F" d="M800.2,561v-0.1c0,0.7,0,1.4,0,2.3c-1.7,0.2-3.3,0.3-4.4,1.7c-1.1,1.5-1.2,3.2-1.2,5c0,2.8,0,5.5,0,8.4
		c-1.2,0.5-2.3,0.1-3.6,0.3c0-6,0-11.8,0-17.8c1.1,0,2.2,0,3.3,0c0.5,0.5,0.1,1.3,0.3,1.9c0.8,0.1,0.8-0.7,1.1-1.2
		C797,560,799,559.8,800.2,561z"/>
	<path fill="#484848" d="M930.9,560.7c1.2-0.2,2.2-0.2,3.5,0c0,5.9,0,11.7,0,17.7c-1.1,0-2.2,0-3.5,0
		C930.9,572.5,930.9,566.6,930.9,560.7z"/>
	<path fill="#484848" d="M438.2,578.4c-1.2,0-2.3,0-3.6,0c0-5.9,0-11.7,0-17.7c1.2-0.2,2.3-0.2,3.6,0
		C438.2,566.6,438.2,572.5,438.2,578.4z"/>
	<path fill="#484848" d="M499.2,624.9c-2.7,0-5.3,0-7.9,0c-0.6-2.3-0.6-2.4,1.4-2.5c0.5-4.1,2.6-5.3,6.2-3.8
		c0.1,0.7-0.2,1.3-0.5,1.8c-0.3,0.2-0.5,0-0.7-0.1c-0.9-0.2-1.8-0.2-1.9,0.9c-0.2,1,0.8,1,1.5,1.1c0.6,0.1,1.2,0.1,1.9,0.1
		C499.5,623.1,499.3,623.9,499.2,624.9z"/>
	<path fill="#424242" d="M639.1,595.1c0.1,1.3-1,2.5-2.3,2.6c-1.3,0.1-2.7-1.1-2.7-2.4c-0.1-1.3,1.2-2.6,2.5-2.6
		C637.9,592.6,639,593.8,639.1,595.1z"/>
	<path fill="#424242" d="M848.5,592.7c1.3,0,2.5,1,2.6,2.3c0.1,1.3-1.1,2.6-2.5,2.7c-1.3,0.1-2.6-1.2-2.6-2.6
		C846,593.8,847.1,592.7,848.5,592.7z"/>
	<path fill="#484848" d="M652,595.3c-0.1,1.4-1.1,2.5-2.4,2.5c-1.3,0-2.5-1.3-2.3-2.7c0.1-1.4,1.1-2.3,2.5-2.3
		C651.1,592.8,652.1,593.9,652,595.3z"/>
	<path fill="#484848" d="M802.1,594.7c0.1,1.3-1,2.5-2.3,2.6c-1.4,0.1-2.5-1.1-2.5-2.6c0-1.4,1-2.4,2.3-2.5
		C801,592.3,802.1,593.4,802.1,594.7z"/>
	<path fill="#484848" d="M484,595.1c0,1.4-1,2.5-2.3,2.6c-1.3,0.1-2.5-1.2-2.5-2.6c0-1.3,1.1-2.4,2.4-2.4
		C483,592.7,484,593.8,484,595.1z"/>
	<path fill="#484848" d="M644.2,592.7c1.3,0,2.3,1,2.3,2.4c0.1,1.4-0.9,2.5-2.2,2.6c-1.3,0.1-2.5-1.1-2.5-2.5
		C641.8,593.8,642.8,592.7,644.2,592.7z"/>
	<path fill="#424242" d="M489.4,595.3c-0.1,1.4-1.1,2.5-2.3,2.5c-1.4,0-2.4-1.2-2.3-2.7c0.1-1.4,1.1-2.3,2.5-2.3
		C488.5,592.8,489.4,593.9,489.4,595.3z"/>
	<path fill="#424242" d="M931.4,620.3c0,1.4-1.1,2.5-2.6,2.5c-1.3-0.1-2.3-1.1-2.3-2.5c0-1.4,1.2-2.6,2.6-2.5
		C930.4,617.8,931.4,618.9,931.4,620.3z"/>
	<path fill="#424242" d="M572.9,597.3c-1.4,0-2.5-1.1-2.5-2.5c0.1-1.4,1-2.3,2.4-2.3c1.5-0.1,2.5,0.9,2.5,2.5
		C575.3,596.3,574.2,597.3,572.9,597.3z"/>
	<path fill="#424242" d="M558,620.3c0,1.3-1,2.5-2.3,2.5s-2.3-1-2.4-2.4c-0.1-1.5,1-2.6,2.4-2.6C556.9,617.8,558,618.9,558,620.3z"
		/>
	<path fill="#424242" d="M689.3,620.3c0,1.4-1,2.5-2.3,2.5c-1.3,0-2.4-1.1-2.5-2.4c-0.1-1.4,1.1-2.6,2.5-2.6
		C688.3,617.8,689.3,618.8,689.3,620.3z"/>
	<path fill="#424242" d="M550.1,622.7c-1.3-0.1-2.3-1.1-2.3-2.5s1.2-2.6,2.6-2.5c1.3,0.1,2.2,1.2,2.2,2.6
		C552.4,621.8,551.4,622.8,550.1,622.7z"/>
	<path fill="#424242" d="M681.5,622.7c-1.4-0.1-2.3-1.1-2.3-2.7c0.1-1.4,1.1-2.3,2.5-2.3c1.3,0.1,2.3,1.2,2.2,2.6
		C683.9,621.7,682.8,622.8,681.5,622.7z"/>
	<path fill="#424242" d="M802.8,594.8c0-1.4,1-2.5,2.3-2.5c1.4-0.1,2.5,1,2.5,2.5c-0.1,1.3-1.1,2.5-2.3,2.5
		C803.9,597.3,802.8,596.1,802.8,594.8z"/>
	<path fill="#424242" d="M394.6,598.6c-1.3-0.1-2.3-1.1-2.2-2.5c0.1-1.4,1.1-2.5,2.6-2.3c1.3,0.1,2.2,1.2,2.1,2.6
		C397,597.7,395.9,598.6,394.6,598.6z"/>
	<path fill="#424242" d="M389.2,593.7c1.4-0.1,2.3,0.9,2.4,2.3c0.1,1.4-0.9,2.5-2.2,2.6c-1.4,0.1-2.5-1-2.5-2.5
		C386.9,594.7,387.8,593.7,389.2,593.7z"/>
	<path fill="#424242" d="M436.3,558.8c-1.3-0.1-2-0.9-2-2.2s0.8-2.1,2.1-2.1s2.3,1,2.2,2.3C438.5,558,437.7,558.8,436.3,558.8z"/>
	<path fill="#424242" d="M932.4,554.5c1.7,0,2.3,0.8,2.5,2.1c0.1,1.2-1,2.3-2.3,2.2c-1.4-0.1-2.1-0.9-2.1-2.2
		C930.6,555.2,931.4,554.5,932.4,554.5z"/>
</g>
<g>
	<path fill="#FDFDFD" d="M71.7,417.7c9.2,0.1,16.9-7.6,16.9-16.7c-0.1-9.2-7.5-16.6-16.6-16.8c-9.2-0.2-16.9,7.5-16.9,16.6
		C54.9,410.1,62.4,417.7,71.7,417.7z M97,392.1c9.2-0.1,16.5-7.3,16.6-16.4c0-8.9-7.4-16.2-16.5-16.3c-9.2-0.1-16.9,7.5-16.8,16.5
		C80.3,385,87.8,392.2,97,392.1z M168.3,389.3c0.1-9-6.9-16.1-15.8-16.1c-8.9-0.1-16.1,7-16.2,15.8c-0.1,9,7.1,16.2,16,16.2
		C161.2,405.3,168.2,398.2,168.3,389.3z M105.7,406.8c0,9,7,16,16,16c8.8,0,15.8-7.2,15.8-16.2c0-8.9-7.1-15.9-16.1-15.8
		C112.6,390.8,105.7,397.9,105.7,406.8z M186.8,396.5c8.5,0,15.4-6.8,15.4-15.3c0-8.6-6.9-15.5-15.5-15.5c-8.5,0.1-15.4,7-15.4,15.5
		C171.5,389.6,178.3,396.5,186.8,396.5z M126.8,341.9c-8.4,0-15,6.5-15.1,14.8c-0.1,8.3,6.7,15.1,15.1,15.1c8.3,0,14.9-6.7,14.9-15
		C141.8,348.6,135.2,341.9,126.8,341.9z M178.2,436.9c8.1,0,14.6-6.3,14.7-14.3c0.1-7.9-6.7-14.6-14.8-14.5
		c-8,0.1-14.6,6.5-14.6,14.2C163.4,430.4,170,436.9,178.2,436.9z M132.1,437.4c-0.1,7.8,6.2,14,14.1,14.1
		c7.9,0.1,14.3-6.2,14.4-13.9c0.1-7.9-6.2-14.1-14.2-14.2C138.5,423.4,132.2,429.6,132.1,437.4z M146.6,345.3
		c0,7.5,6,13.6,13.6,13.6c7.5,0,13.6-6.1,13.6-13.6c0-7.5-6-13.3-13.5-13.3C152.5,332,146.6,337.7,146.6,345.3z M235.5,383.9
		c0-7.6-5.8-13.5-13.3-13.5c-7.5,0-13.5,6-13.5,13.4c0,7.4,6,13.4,13.3,13.4C229.7,397.3,235.5,391.5,235.5,383.9z M226.7,422.8
		c0-7.5-5.7-13.3-13-13.3c-7.4,0-13.3,5.9-13.3,13.3c0,7.3,5.9,13.3,13.1,13.3C220.9,436.1,226.7,430.2,226.7,422.8z M218.2,482.6
		c0,7.5,5.7,13.2,13.1,13.2c7.3,0,13-5.8,13-13.1c0-7.4-5.8-13.3-13.1-13.3C224,469.3,218.2,475.2,218.2,482.6z M244.3,516.9
		c-0.1-7.3-5.8-13-12.9-13c-7.3,0-12.9,5.9-12.9,13.2c0.1,7.2,5.9,13,13,13C238.7,530,244.4,524.1,244.3,516.9z M213.3,590.3
		c7.2-0.1,12.9-5.8,12.9-13c-0.1-7-5.8-12.8-12.9-12.8c-7.2,0-13.1,5.8-13.1,12.9C200.3,584.6,206.2,590.3,213.3,590.3z
		 M191.8,460.9c0,7.3,5.7,13.1,12.8,13.1c7.2,0,12.9-5.8,12.9-13c0-7.3-5.7-12.9-12.9-12.9C197.4,448.1,191.8,453.7,191.8,460.9z
		 M222.5,602.9c-7.1-0.1-12.9,5.5-13,12.4c-0.1,7.3,5.5,13,12.7,13.1c7.1,0.1,12.9-5.5,12.9-12.4
		C235.2,608.6,229.8,602.9,222.5,602.9z M217.5,538.7c0.1-7.1-5.5-12.8-12.7-13c-6.9-0.2-13,5.7-13,12.7c-0.1,7,5.7,12.7,12.6,12.8
		C211.6,551.4,217.4,545.8,217.5,538.7z M183,499.6c0.1,7.2,5.8,12.8,12.9,12.7c7-0.1,12.8-5.8,12.7-12.7
		c-0.1-7.1-5.8-12.8-12.9-12.8C188.6,486.8,182.9,492.5,183,499.6z M183.9,469.1c0.1-7-5.6-12.9-12.7-12.9
		c-6.9-0.1-12.8,5.7-12.8,12.6c-0.1,7,5.5,12.8,12.5,12.9C178.1,481.7,183.8,476.2,183.9,469.1z M97.4,445.4
		c6.8,0,12.3-5.6,12.3-12.5s-5.5-12.5-12.3-12.5c-6.8-0.1-12.4,5.5-12.4,12.5C85,439.8,90.4,445.4,97.4,445.4z M178.3,564.5
		c-6.9,0-12.3,5.4-12.4,12.4c-0.1,7,5.5,12.9,12.4,12.8c6.7-0.1,12.2-5.7,12.2-12.5C190.5,570.1,185.1,564.5,178.3,564.5z
		 M231.2,332.8c-6.7,0-12.1,5.5-12.1,12.5c0,7.1,5.3,12.7,12.1,12.7c6.7,0,12-5.5,12.1-12.5C243.4,338.4,237.9,332.8,231.2,332.8z
		 M219,654.4c0,7.1,5.3,12.6,12.2,12.5c6.7,0,12.2-5.7,12.1-12.5c-0.1-7-5.5-12.7-12.2-12.6C224.4,641.9,219,647.5,219,654.4z
		 M267.1,521.7c-6.8,0-12.3,5.5-12.3,12.3c-0.1,6.7,5.6,12.4,12.3,12.4c6.8,0.1,12.4-5.7,12.4-12.5
		C279.3,527.2,273.9,521.7,267.1,521.7z M171,518.5c-6.8,0-12.3,5.5-12.4,12.3s5.4,12.4,12.3,12.5c6.6,0.1,12.3-5.6,12.4-12.4
		C183.3,524.1,177.7,518.5,171,518.5z M52.5,443c7,0.1,12.5-5.3,12.5-12.3c0-6.7-5.3-12.2-11.9-12.3c-7.2-0.1-12.8,5.3-12.7,12.3
		C40.3,437.4,45.8,442.9,52.5,443z M186.7,630.6c6.8,0,12.3-5.3,12.3-12c0.1-6.9-5.4-12.4-12.2-12.4c-6.7,0-12.2,5.4-12.2,12.2
		C174.6,625.1,180,630.6,186.7,630.6z M245.4,549.9c-6.6,0-12,5.2-12,11.8c0,6.8,5.1,12.1,11.8,12.2c6.6,0.1,12.1-5.4,12-12.1
		C257.3,555.2,252,549.9,245.4,549.9z M207.7,658.5c0-6.6-5.2-12-11.8-12.1c-6.4-0.2-11.9,5.4-12,12c-0.1,6.6,5.4,12.2,12,12.2
		C202.3,670.5,207.6,665.1,207.7,658.5z M301.4,482c0,6.7,5.2,12,11.8,12c6.5,0,11.8-5.4,11.8-11.8c0.1-6.6-5.3-12-11.9-12
		S301.4,475.5,301.4,482z M267.1,396.5c0-6.6-5.4-11.9-12-11.8c-6.6,0.1-11.8,5.3-11.9,11.8c-0.1,6.5,5.3,11.7,11.8,11.8
		C261.7,408.3,267.1,403.1,267.1,396.5z M160.4,666.3c6.7,0,11.8-5.2,11.8-12c-0.1-6.6-5.2-11.8-11.8-11.8c-6.6,0-11.9,5.3-11.8,12
		C148.7,661,153.9,666.3,160.4,666.3z M313.4,505.9c-6.5-0.1-11.7,5.1-11.8,11.5c-0.1,6.5,5.2,11.8,11.7,11.9
		c6.5,0.1,11.8-5.2,11.8-11.8C325.1,511.1,319.9,505.9,313.4,505.9z M275.9,357c0.1-6.7-4.9-11.8-11.3-11.8
		c-6.3,0-11.4,5.1-11.4,11.6c-0.1,6.7,5.1,12.1,11.5,12.1C270.8,368.8,275.9,363.5,275.9,357z M135.5,465.4
		c-0.1-6.4-5.1-11.3-11.5-11.3c-6.5,0-11.7,5.1-11.6,11.4c0.1,6.3,5.2,11.3,11.5,11.4C130.4,476.8,135.5,471.8,135.5,465.4z
		 M243.9,602.9c0,6.4,5,11.6,11.3,11.6c6.4,0,11.5-5.1,11.5-11.6c0-6.3-5.1-11.5-11.3-11.6C249,591.3,243.9,596.4,243.9,602.9z
		 M144.6,499.7c0,6.4,4.9,11.4,11.3,11.5c6.4,0.1,11.5-5.1,11.5-11.3c0-6.4-5-11.3-11.5-11.3C149.6,488.5,144.6,493.4,144.6,499.7z
		 M291.8,447.9c0,6.4,4.9,11.4,11.2,11.4s11.3-5,11.3-11.3c0-6.3-5-11.4-11.2-11.4C296.7,436.7,291.8,441.6,291.8,447.9z
		 M303.1,540.1c-6.2-0.1-11.2,4.9-11.2,11.2c-0.1,6.2,5,11.3,11,11.4c6.1,0.1,11.2-5,11.2-11.2C314.2,545.1,309.3,540.1,303.1,540.1
		z M121.3,603.7c6.3,0,11.3-4.9,11.3-11c0-6.2-4.9-11.3-11-11.3c-6.1-0.1-11.3,5-11.3,11.1C110.2,598.7,115.2,603.7,121.3,603.7z
		 M140.9,610.3c0,6.4,4.7,11.1,11.1,11.2c6.2,0.1,11.3-4.9,11.3-11s-5-11.1-11.3-11.1C145.9,599.4,140.9,604.2,140.9,610.3z
		 M157.1,562c0-6-4.7-10.8-10.7-10.9c-6-0.1-11,4.9-10.9,10.9c0,5.9,5,10.9,10.9,10.8C152.2,572.8,157,568,157.1,562z M338.7,579.4
		c6,0,10.8-4.8,10.7-10.8c0-5.9-5-10.9-10.8-10.8c-5.8,0.1-10.6,4.9-10.7,10.8C327.9,574.6,332.7,579.4,338.7,579.4z M137.5,642.6
		c0-6-4.6-10.8-10.5-10.8c-5.8,0-10.6,4.9-10.6,10.8c0,5.8,4.7,10.6,10.5,10.7C132.6,653.4,137.5,648.6,137.5,642.6z M254.3,642.5
		c0,5.9,4.6,10.7,10.3,10.8c5.7,0,10.3-4.8,10.4-10.7c0-5.9-4.6-10.7-10.3-10.8C258.9,631.8,254.3,636.6,254.3,642.5z M283.1,408.3
		c-5.9-0.1-10.5,4.6-10.5,10.5s4.6,10.7,10.3,10.8c5.7,0.1,10.5-4.7,10.5-10.6C293.5,413.1,288.9,408.4,283.1,408.3z M114.1,534
		c-0.1,5.9,4.3,10.5,10.1,10.6c5.8,0.1,10.4-4.4,10.4-10.1c0.1-5.9-4.4-10.6-10-10.7C118.7,523.7,114.2,528.1,114.1,534z
		 M282.9,591.4c5.7,0.1,10.1-4.5,10.1-10.3c0.1-6.1-4.3-10.8-10.1-10.8c-5.5,0-10.1,4.7-10.1,10.5
		C272.8,586.7,277.3,591.4,282.9,591.4z M116.5,489.6c-5.5,0-9.9,4.4-9.9,10.1c-0.1,5.9,4.3,10.5,10,10.5c5.4-0.1,9.8-4.6,9.9-10.2
		C126.5,494.3,122,489.6,116.5,489.6z M329.5,598.9c0-5.4-4.4-9.8-9.7-9.9c-5.3,0-9.8,4.4-9.8,9.8c-0.1,5.5,4.3,9.9,9.9,9.9
		C325.2,608.6,329.5,604.3,329.5,598.9z M96.4,633.5c5.6,0,9.9-4.1,10-9.5c0.1-5.3-4.4-9.8-9.9-9.7c-5.3,0-9.8,4.4-9.8,9.6
		C86.8,629.1,91,633.4,96.4,633.5z M285.3,623.5c-0.1,5.1,4.1,9.3,9.2,9.3c5.1,0.1,9.3-4.2,9.4-9.2c0.1-5.1-4.1-9.3-9.2-9.3
		C289.4,614.3,285.4,618.3,285.3,623.5z M41,473.4c5.3,0,9.3-3.8,9.2-8.9c-0.1-5-3.9-8.8-9.1-8.9c-5.2,0-9.3,3.8-9.4,8.8
		C31.7,469.4,35.8,473.3,41,473.4z M80.3,598.6c0-5-3.8-8.9-8.8-8.9c-4.8,0.1-8.7,4-8.7,8.9c0,5,3.9,9,8.8,9.1
		C76.3,607.6,80.3,603.5,80.3,598.6z M61,568.8c0.1-4.9-3.5-8.6-8.2-8.7c-4.6-0.1-8.5,3.7-8.6,8.5c-0.1,4.6,3.7,8.7,8.3,8.8
		C57.2,577.4,61,573.5,61,568.8z M48.6,535.1c0-4.5-3.4-8.1-7.6-8.1c-4.3,0-7.9,3.6-7.9,8.1c0,4.3,3.5,8.1,7.7,8.2
		C45,543.3,48.6,539.6,48.6,535.1z"/>
	<path fill="#137485" d="M26.6,497.3c0.9-1.2,1.2-2.8,2.2-3.9c3-3.6,7.9-4.9,12.3-3.1c4.2,1.8,6.8,6.2,6.3,10.8
		c-0.5,4.5-4.1,8.3-8.3,9.1c-5,0.9-9.4-1.4-11.5-5.9c-0.3-0.6-0.3-1.3-0.9-1.7C26.6,500.7,26.6,499,26.6,497.3z"/>
	<path fill="#354F74" d="M198.2,330.8c0.2,0.5,0.6,0.4,1,0.5c4.8,1.8,7.7,6.6,6.8,11.4c-1,5.3-5.1,8.8-10.4,8.8
		c-5,0-9.4-3.7-10.2-8.5c-0.9-5.1,2-9.9,6.9-11.7c0.4-0.1,0.8-0.1,1.1-0.5C195,330.8,196.6,330.8,198.2,330.8z"/>
	<path fill="#176F83" d="M71.7,417.7c-9.3-0.1-16.8-7.6-16.7-16.9c0.1-9.2,7.7-16.8,16.9-16.6s16.6,7.6,16.6,16.8
		C88.6,410.1,80.9,417.8,71.7,417.7z"/>
	<path fill="#226880" d="M97,392.1c-9.2,0.1-16.7-7.2-16.8-16.3c-0.1-9,7.6-16.5,16.8-16.5c9.1,0.1,16.5,7.4,16.5,16.3
		C113.6,384.8,106.3,392.1,97,392.1z"/>
	<path fill="#2F5978" d="M168.3,389.3c-0.1,8.9-7.2,16-16,16c-8.9,0-16.1-7.3-16-16.2c0.1-8.8,7.2-15.8,16.2-15.8
		C161.4,373.2,168.4,380.3,168.3,389.3z"/>
	<path fill="#29607C" d="M105.7,406.8c0-8.9,6.9-16,15.7-16c9-0.1,16.1,6.9,16.1,15.8c0,9-7,16.2-15.8,16.2
		C112.8,422.8,105.8,415.7,105.7,406.8z"/>
	<path fill="#354F74" d="M186.8,396.5c-8.5,0-15.4-6.9-15.4-15.3c0-8.5,6.9-15.4,15.4-15.5c8.5-0.1,15.5,6.9,15.5,15.5
		C202.2,389.7,195.4,396.5,186.8,396.5z"/>
	<path fill="#29607C" d="M126.8,341.9c8.4,0,14.9,6.6,14.9,14.9c0,8.3-6.7,14.9-14.9,15c-8.4,0-15.2-6.8-15.1-15.1
		C111.8,348.5,118.5,341.9,126.8,341.9z"/>
	<path fill="#354F74" d="M178.2,436.9c-8.2,0-14.7-6.5-14.7-14.5c0.1-7.7,6.6-14.2,14.6-14.2c8.1-0.1,14.8,6.6,14.8,14.5
		C192.7,430.6,186.3,436.9,178.2,436.9z"/>
	<path fill="#2F5978" d="M132.1,437.4c0.1-7.8,6.4-14,14.2-14c8,0.1,14.2,6.3,14.2,14.2c-0.1,7.7-6.5,13.9-14.4,13.9
		C138.4,451.4,132.1,445.2,132.1,437.4z"/>
	<path fill="#2F5978" d="M146.6,345.3c0-7.6,5.9-13.3,13.7-13.3c7.5,0,13.5,5.9,13.5,13.3c0,7.5-6.1,13.6-13.6,13.6
		C152.6,358.9,146.6,352.8,146.6,345.3z"/>
	<path fill="#3B426D" d="M235.5,383.9c0,7.6-5.9,13.3-13.5,13.3c-7.4,0-13.3-6-13.3-13.4c0-7.4,6.1-13.4,13.5-13.4
		C229.7,370.4,235.5,376.4,235.5,383.9z"/>
	<path fill="#39476F" d="M226.7,422.8c0,7.4-5.8,13.3-13.1,13.3c-7.2,0-13.1-6-13.1-13.3c0-7.5,5.9-13.4,13.3-13.3
		C221,409.4,226.7,415.3,226.7,422.8z"/>
	<path fill="#3B426D" d="M218.2,482.6c0-7.4,5.8-13.2,13.1-13.2c7.3,0,13.1,5.9,13.1,13.3c0,7.3-5.8,13.1-13,13.1
		C223.9,495.8,218.2,490.1,218.2,482.6z"/>
	<path fill="#3B426D" d="M244.3,516.9c0.1,7.2-5.7,13.1-12.8,13.1c-7,0.1-12.9-5.8-13-13c-0.1-7.4,5.6-13.2,12.9-13.2
		C238.6,503.9,244.3,509.7,244.3,516.9z"/>
	<path fill="#39476F" d="M213.3,590.3c-7.2,0.1-13-5.8-13-12.9c0-7,5.9-12.9,13.1-12.9c7.1,0,12.9,5.7,12.9,12.8
		C226.3,584.6,220.6,590.3,213.3,590.3z"/>
	<path fill="#39476F" d="M191.8,460.9c0-7.2,5.6-12.9,12.8-12.9c7.2,0,12.9,5.7,12.9,12.9c0,7.2-5.7,13-12.9,13
		C197.4,474,191.8,468.2,191.8,460.9z"/>
	<path fill="#3B426D" d="M222.5,602.9c7.3,0.1,12.7,5.7,12.6,13.1c-0.1,6.9-5.8,12.5-12.9,12.4c-7.2-0.1-12.8-5.9-12.7-13.1
		C209.6,608.4,215.4,602.8,222.5,602.9z"/>
	<path fill="#39476F" d="M217.5,538.7c-0.1,7-5.9,12.6-13.1,12.5c-7-0.1-12.6-5.8-12.6-12.8c0.1-6.9,6-12.9,13-12.7
		C212,526,217.6,531.6,217.5,538.7z"/>
	<path fill="#354F74" d="M183,499.6c-0.1-7.1,5.7-12.8,12.8-12.8c7.1,0,12.8,5.7,12.9,12.8c0.1,6.9-5.7,12.6-12.7,12.7
		C188.7,512.4,183,506.8,183,499.6z"/>
	<path fill="#354F74" d="M183.9,469.1c-0.1,7.1-5.8,12.6-13,12.5c-7-0.1-12.5-5.8-12.5-12.9c0.1-6.9,5.9-12.7,12.8-12.6
		C178.3,456.2,184,462,183.9,469.1z"/>
	<path fill="#226880" d="M97.4,445.4c-6.9,0-12.4-5.6-12.4-12.6c0.1-6.9,5.6-12.5,12.4-12.5c6.8,0.1,12.3,5.7,12.3,12.5
		C109.7,439.8,104.2,445.4,97.4,445.4z"/>
	<path fill="#354F74" d="M178.3,564.5c6.8,0,12.2,5.7,12.2,12.7c-0.1,6.8-5.5,12.4-12.2,12.5c-6.8,0.1-12.4-5.7-12.4-12.8
		C165.9,569.9,171.3,564.5,178.3,564.5z"/>
	<path fill="#3B426D" d="M231.2,332.8c6.8,0,12.2,5.7,12.1,12.6c-0.1,7-5.4,12.5-12.1,12.5c-6.7,0-12.1-5.7-12.1-12.7
		C219.1,338.3,224.4,332.8,231.2,332.8z"/>
	<path fill="#3B426D" d="M219,654.4c0-6.9,5.4-12.5,12.1-12.6c6.7-0.1,12.2,5.6,12.2,12.6c0.1,6.8-5.4,12.5-12.1,12.5
		C224.3,667,219,661.5,219,654.4z"/>
	<path fill="#3D3868" d="M267.1,521.7c6.8,0,12.3,5.4,12.4,12.3c0.1,6.8-5.7,12.5-12.4,12.5c-6.7-0.1-12.3-5.8-12.3-12.4
		C254.8,527.2,260.3,521.7,267.1,521.7z"/>
	<path fill="#354F74" d="M171,518.5c6.8,0,12.3,5.6,12.3,12.4c-0.1,6.8-5.7,12.4-12.4,12.4c-6.8-0.1-12.3-5.7-12.3-12.5
		C158.6,524,164.2,518.5,171,518.5z"/>
	<path fill="#137485" d="M52.5,443c-6.7-0.1-12.2-5.5-12.2-12.3c0-7,5.5-12.3,12.7-12.3c6.6,0.1,12,5.5,11.9,12.3
		C64.9,437.6,59.6,443,52.5,443z"/>
	<path fill="#354F74" d="M186.7,630.6c-6.8,0-12.1-5.4-12.1-12.3c0-6.7,5.5-12.2,12.2-12.2c6.8,0,12.2,5.5,12.2,12.4
		C199,625.3,193.5,630.6,186.7,630.6z"/>
	<path fill="#3B426D" d="M245.4,549.9c6.6,0,11.9,5.3,11.9,12c0.1,6.6-5.4,12.2-12,12.1c-6.7-0.1-11.8-5.4-11.8-12.2
		C233.5,555.2,238.8,549.9,245.4,549.9z"/>
	<path fill="#354F74" d="M207.7,658.5c0,6.6-5.3,12.1-11.8,12.1c-6.5,0-12-5.6-12-12.2c0.1-6.6,5.6-12.1,12-12
		C202.5,646.5,207.7,651.8,207.7,658.5z"/>
	<path fill="#403064" d="M301.4,482c0-6.6,5.3-11.8,11.8-11.8c6.6,0,12,5.4,11.9,12c-0.1,6.5-5.4,11.8-11.8,11.8
		C306.7,494,301.4,488.7,301.4,482z"/>
	<path fill="#3D3868" d="M267.1,396.5c0,6.6-5.4,11.8-12.1,11.7c-6.6-0.1-11.8-5.4-11.8-11.8c0.1-6.5,5.3-11.7,11.9-11.8
		C261.8,384.6,267.2,389.9,267.1,396.5z"/>
	<path fill="#2F5978" d="M160.4,666.3c-6.5,0-11.7-5.2-11.8-11.8c-0.1-6.6,5.2-12,11.8-12c6.6,0,11.7,5.2,11.8,11.8
		C172.3,661,167.1,666.2,160.4,666.3z"/>
	<path fill="#403064" d="M313.4,505.9c6.5,0.1,11.7,5.2,11.7,11.7c0,6.5-5.3,11.8-11.8,11.8c-6.5-0.1-11.8-5.4-11.7-11.9
		C301.7,510.9,306.9,505.8,313.4,505.9z"/>
	<path fill="#3D3868" d="M275.9,357c-0.1,6.5-5.1,11.8-11.3,11.8c-6.4,0-11.5-5.4-11.5-12.1c0.1-6.5,5.1-11.6,11.4-11.6
		C271,345.2,275.9,350.3,275.9,357z"/>
	<path fill="#29607C" d="M135.5,465.4c0.1,6.5-5.1,11.5-11.6,11.5c-6.4-0.1-11.5-5.1-11.5-11.4c-0.1-6.4,5.1-11.4,11.6-11.4
		C130.4,454,135.4,459,135.5,465.4z"/>
	<path fill="#3D3868" d="M243.9,602.9c0-6.5,5.1-11.6,11.5-11.6c6.2,0.1,11.3,5.3,11.3,11.6c0,6.4-5.1,11.6-11.5,11.6
		C248.9,614.5,243.9,609.3,243.9,602.9z"/>
	<path fill="#2F5978" d="M144.6,499.7c0-6.2,5-11.2,11.4-11.2c6.5,0,11.5,5,11.5,11.3c0,6.2-5.2,11.4-11.5,11.3
		C149.5,511.1,144.6,506.1,144.6,499.7z"/>
	<path fill="#403064" d="M291.8,447.9c0-6.4,4.9-11.3,11.3-11.3c6.2,0,11.2,5.1,11.2,11.4c0,6.2-5.1,11.3-11.3,11.3
		C296.7,459.3,291.8,454.2,291.8,447.9z"/>
	<path fill="#403064" d="M303.1,540.1c6.2,0.1,11,5.1,11,11.3c-0.1,6.2-5.1,11.2-11.2,11.2c-6.1-0.1-11.1-5.2-11-11.4
		C291.9,545,296.9,540,303.1,540.1z"/>
	<path fill="#29607C" d="M121.3,603.7c-6.2,0-11.2-5.1-11.1-11.3c0.1-6.1,5.2-11.2,11.3-11.1c6.2,0.1,11.1,5.1,11,11.3
		C132.6,598.9,127.6,603.8,121.3,603.7z"/>
	<path fill="#2F5978" d="M140.9,610.3c0-6.1,5-10.9,11.2-10.9c6.2,0,11.3,5,11.3,11.1c0,6.1-5.1,11-11.3,11
		C145.7,621.4,140.9,616.6,140.9,610.3z"/>
	<path fill="#2F5978" d="M157.1,562c0,6-4.9,10.8-10.8,10.8c-5.9,0.1-10.8-4.9-10.9-10.8c0-6,5-11,10.9-10.9
		C152.3,551.2,157.1,556,157.1,562z"/>
	<path fill="#403064" d="M338.7,579.4c-6,0-10.8-4.9-10.8-10.8c0.1-5.9,4.9-10.7,10.7-10.8c5.9-0.1,10.8,4.9,10.8,10.8
		C349.5,574.7,344.8,579.4,338.7,579.4z"/>
	<path fill="#29607C" d="M137.5,642.6c0,5.9-4.9,10.8-10.7,10.7c-5.7-0.1-10.5-4.9-10.5-10.7c0-5.9,4.8-10.8,10.6-10.8
		C132.8,631.9,137.5,636.7,137.5,642.6z"/>
	<path fill="#3D3868" d="M254.3,642.5c0-5.9,4.6-10.7,10.4-10.7s10.3,4.9,10.3,10.8s-4.6,10.7-10.4,10.7
		C258.9,653.3,254.3,648.5,254.3,642.5z"/>
	<path fill="#403064" d="M283.1,408.3c5.8,0.1,10.4,4.8,10.4,10.7c-0.1,5.8-4.9,10.7-10.5,10.6c-5.7-0.1-10.4-4.9-10.3-10.8
		C272.6,412.9,277.2,408.3,283.1,408.3z"/>
	<path fill="#29607C" d="M114.1,534c0.1-5.9,4.6-10.3,10.5-10.2c5.7,0.1,10.1,4.8,10,10.7c-0.1,5.7-4.7,10.2-10.4,10.1
		C118.5,544.5,114,539.9,114.1,534z"/>
	<path fill="#403064" d="M282.9,591.4c-5.7-0.1-10.1-4.7-10.1-10.6c0.1-5.8,4.5-10.5,10.1-10.5c5.8,0,10.2,4.6,10.1,10.8
		C293.1,587,288.6,591.5,282.9,591.4z"/>
	<path fill="#29607C" d="M116.5,489.6c5.5,0,10,4.7,10,10.4s-4.5,10.2-9.9,10.2c-5.7,0.1-10-4.5-10-10.5
		C106.6,494.1,110.9,489.6,116.5,489.6z"/>
	<path fill="#403064" d="M329.5,598.9c0,5.5-4.3,9.8-9.7,9.8c-5.5,0-9.9-4.4-9.9-9.9c0.1-5.3,4.5-9.8,9.8-9.8
		C325.1,589,329.5,593.5,329.5,598.9z"/>
	<path fill="#226880" d="M96.4,633.5c-5.4,0-9.7-4.3-9.7-9.6c0-5.2,4.4-9.6,9.8-9.6c5.4,0,9.9,4.4,9.9,9.7
		C106.4,629.3,102,633.5,96.4,633.5z"/>
	<path fill="#403064" d="M285.3,623.5c0.1-5.2,4.2-9.2,9.3-9.2c5.1,0.1,9.3,4.2,9.2,9.3c-0.1,5.1-4.3,9.3-9.4,9.2
		C289.4,632.9,285.2,628.6,285.3,623.5z"/>
	<path fill="#137485" d="M41,473.4c-5.2,0-9.3-3.9-9.2-8.9c0.1-5,4.2-8.9,9.4-8.8c5.1,0,9.1,3.8,9.1,8.9
		C50.3,469.5,46.3,473.4,41,473.4z"/>
	<path fill="#176F83" d="M80.3,598.6c0,5-3.9,9-8.8,9c-4.9-0.1-8.8-4.1-8.8-9.1c0-4.9,3.9-8.8,8.7-8.9
		C76.4,589.6,80.2,593.5,80.3,598.6z"/>
	<path fill="#137485" d="M61,568.8c-0.1,4.8-3.8,8.6-8.5,8.5c-4.6-0.1-8.4-4.1-8.3-8.8c0.1-4.8,3.9-8.5,8.6-8.5
		C57.5,560.1,61.1,563.9,61,568.8z"/>
	<path fill="#137485" d="M48.6,535.1c0,4.5-3.6,8.3-7.8,8.2c-4.2-0.1-7.7-3.8-7.7-8.2c0-4.5,3.6-8.1,7.9-8.1
		C45.1,527,48.6,530.6,48.6,535.1z"/>
</g>
</svg>
