<svg xmlns="http://www.w3.org/2000/svg" viewBox="0 0 226.54 70.89"><defs><style>.cls-1{fill:#fff;}.cls-2{opacity:0.5;}</style></defs><g id="Layer_2" data-name="Layer 2"><g id="Layer_1-2" data-name="Layer 1"><g id="NVL_Logo" data-name="NVL Logo"><g id="Symbol"><path class="cls-1" d="M46.11,29.13C52.23,37.26,59,40.94,66.2,40.05c16.19-2,28.06-27.19,31.31-34.86l0-.1a3.6,3.6,0,0,0-6.33-3.38,7.15,7.15,0,0,0-.33.68C85.25,15.72,75.16,31.71,65.33,32.92c-4.48.56-9-2.17-13.49-8.11C45.73,16.69,39,13.06,31.7,14,14.05,16.31,1.62,45.65.27,49A3.59,3.59,0,1,0,6.92,51.7c3.26-8,14.24-29.08,25.72-30.57C37.13,20.53,41.66,23.24,46.11,29.13Z"/><path class="cls-1" d="M125.68.19a3.59,3.59,0,0,0-4.54,2.27c-.09.26-9.1,26.66-29.28,45.26A3.59,3.59,0,0,0,96.73,53C118.31,33.11,127.56,5.88,128,4.73A3.59,3.59,0,0,0,125.68.19Z"/><path class="cls-1" d="M110.84.3a3.6,3.6,0,0,0-4.73,1.86c-12.21,28-26,43.41-39.82,44.5C49.46,48,36.62,28.22,36.49,28a3.59,3.59,0,0,0-6.06,3.86c.59.93,14.23,22,34.2,22q1.08,0,2.19-.09C83.72,52.51,99.16,36.1,112.7,5A3.6,3.6,0,0,0,110.84.3Z"/></g><g id="Nile_Venture_Lab" data-name="Nile Venture Lab"><path class="cls-1" d="M145.41,34.8a3.11,3.11,0,0,0,3.27-2l5.21-13.08H150.4L145.8,31.3c-.1.24-.21.28-.39.28a.35.35,0,0,1-.38-.27l-4.4-11.63h-3.45l4.92,13.08A3.16,3.16,0,0,0,145.41,34.8Z"/><path class="cls-1" d="M161.46,22.76h-3.6c-2.71,0-4.2,1.42-4.2,4v3.78c0,2.54,1.53,4,4.2,4h7.23V31.71h-7.23c-.91,0-1.37-.4-1.37-1.2V30h4.95c2.76,0,4.1-1.15,4.1-3.53S164.13,22.76,161.46,22.76Zm-.08,4.86h-4.89v-.84c0-.79.47-1.19,1.37-1.19h3.58c1.12,0,1.24.59,1.24,1S162.52,27.62,161.38,27.62Z"/><path class="cls-1" d="M170.51,25.59h3.58c2.69,0,3,1.35,3,2.37v6.58H180V28c0-3.35-2.1-5.2-5.92-5.2h-4.6c-1.33,0-1.89.62-1.89,2.06v9.72h2.91Z"/><path class="cls-1" d="M185.8,20.13h-2.92v2.63h-1.51v2.83h1.51v4.8c0,2.94,1.05,4.15,3.62,4.15h2.33V31.83H187c-.81,0-1.16-.18-1.16-1.32V25.59h3.07V22.76H185.8Z"/><path class="cls-1" d="M199.81,29.76c0,1.2-.91,1.95-2.37,1.95h-1.81c-1.49,0-2.4-.75-2.4-1.95v-7h-2.92v7.08c0,2.91,2,4.7,5.14,4.7h2.07c3.18,0,5.16-1.79,5.16-4.7V22.76h-2.87Z"/><path class="cls-1" d="M205.12,26.34v8.2H208V26.67c0-.77.31-1.08,1.1-1.08h4.25V22.76h-4.9C206.15,22.76,205.12,23.87,205.12,26.34Z"/><path class="cls-1" d="M217.48,30.51V30h5c2.76,0,4.1-1.15,4.1-3.53s-1.42-3.75-4.09-3.75h-3.59c-2.72,0-4.21,1.42-4.21,4v3.78c0,2.54,1.53,4,4.21,4h7.23V31.71h-7.23C217.93,31.71,217.48,31.31,217.48,30.51Zm0-3.73c0-.79.47-1.19,1.38-1.19h3.58c1.11,0,1.23.59,1.23,1s-.15,1-1.3,1h-4.89Z"/><path class="cls-1" d="M140.33,48.71V37.37h-3.15V48.73c0,3.37,2,5.24,5.58,5.24h8.67V50.82h-8.52C140.6,50.82,140.33,49.61,140.33,48.71Z"/><path class="cls-1" d="M161.33,42.18h-7.68V45h7.67c.91,0,1.36.41,1.36,1.2v.51h-4.94c-2.75,0-4.09,1.16-4.09,3.54S155.06,54,157.71,54h5.2c2.2,0,2.63-.93,2.63-2.56V46.18C165.54,43.6,164.05,42.18,161.33,42.18Zm1.35,8.71c0,.2,0,.25-.27.25h-4.67c-1.09,0-1.22-.55-1.22-1s.21-1,1.26-1h4.9Z"/><path class="cls-1" d="M175.09,42.18h-4.58V37.37H167.6v11.5C167.6,53.08,170,54,172,54h3.07c3.27,0,5.14-2.14,5.14-5.88S178.36,42.18,175.09,42.18Zm-.22,9h-2.19c-1.61,0-2.17-.62-2.17-2.36V45h4.36c1.46,0,2.44.52,2.44,3.08S176.33,51.14,174.87,51.14Z"/><path class="cls-1" d="M140.48,3.56c0-.34.16-.49.52-.49s.44.1.58.42l4.14,9a3.72,3.72,0,0,0,3.78,2.84c2.25,0,3.6-1.29,3.6-3.45V0h-3.17V11.83c0,.38-.29.46-.51.46a.63.63,0,0,1-.61-.38l-4.13-9C144.16,1.44,143.32,0,140.92,0c-2.25,0-3.61,1.29-3.61,3.43V15.14h3.17Z"/><rect class="cls-1" x="156.41" width="2.92" height="3.26"/><rect class="cls-1" x="156.41" y="4.71" width="2.89" height="10.42"/><rect class="cls-1" x="162.64" width="2.9" height="15.13"/><path class="cls-1" d="M171.81,15.13H179V12.29h-7.23c-.92,0-1.38-.39-1.38-1.2v-.46h5c2.76,0,4.1-1.17,4.1-3.54s-1.42-3.74-4.09-3.74h-3.59c-2.72,0-4.21,1.41-4.21,4v3.78C167.6,13.67,169.13,15.13,171.81,15.13Zm-1.38-7.77c0-.79.47-1.19,1.38-1.19h3.58c.83,0,1.23.33,1.23,1,0,.52-.15,1-1.3,1h-4.89Z"/></g><g id="Aswan_University" data-name="Aswan University" class="cls-2"><path class="cls-1" d="M149.84,67.26c0,.73-.3,1.6-1.72,1.6h-3V67.74h3c.44,0,.6-.14.6-.5s-.11-.5-.65-.5h-1.21c-1.21,0-1.82-.52-1.82-1.54s.59-1.55,1.73-1.55h2.87v1.12h-2.87c-.43,0-.6.14-.6.5s.11.49.66.49H148C149.27,65.76,149.84,66.24,149.84,67.26Z"/><path class="cls-1" d="M159.43,63.65l0,.08-.57,4a1.49,1.49,0,0,1-2.91.12l-.68-3.08a.3.3,0,0,0-.32-.2c-.17,0-.27.07-.3.2l-.72,3.08a1.33,1.33,0,0,1-1.47,1.1A1.26,1.26,0,0,1,151,67.75l-.53-4.1h1.23v.06l.45,4c0,.2.11.26.29.26s.28-.08.32-.22l.72-3.08A1.31,1.31,0,0,1,155,63.56a1.26,1.26,0,0,1,1.42,1.07l.68,3.08c0,.13.1.22.32.22s.25-.06.28-.26l.54-4Z"/><path class="cls-1" d="M163.62,63.65H160.5v1.12h3.1c.59,0,.7.34.7.63v.32H162c-1.2,0-1.77.49-1.77,1.52s.59,1.62,1.76,1.62h2.37c.94,0,1.12-.38,1.12-1.09V65.39A1.62,1.62,0,0,0,163.62,63.65Zm.68,3.89c0,.14,0,.2-.21.2H162c-.44,0-.65-.18-.65-.55s.08-.53.66-.53h2.32Z"/><path class="cls-1" d="M144.54,68.86h-1.39l0,0-2-5.22a.24.24,0,0,0-.25-.19.28.28,0,0,0-.27.19l-2.08,5.26h-1.38l0-.09L139.49,63a1.59,1.59,0,0,1,2.84,0Z"/><path class="cls-1" d="M172.24,65.93v2.93h-1.16V65.93c0-.78-.48-1.16-1.46-1.16H168s-.06,0-.06.08v4h-1.16V64.5c0-.61.23-.85.79-.85h2.09C171.33,63.65,172.24,64.45,172.24,65.93Z"/><path class="cls-1" d="M181.8,62.23v4.5a1.92,1.92,0,0,1-2.16,2.13h-1.36a1.92,1.92,0,0,1-2.16-2.13v-4.5h1.28v4.4c0,.65.32,1,1,1h1.15c.66,0,1-.32,1-1v-4.4Z"/><path class="cls-1" d="M188.63,65.93v2.93h-1.17V65.93c0-.78-.48-1.16-1.46-1.16h-1.67s-.05,0-.05.08v4h-1.15V64.5c0-.61.22-.85.78-.85H186C187.71,63.65,188.63,64.45,188.63,65.93Z"/><rect class="cls-1" x="189.91" y="61.74" width="1.17" height="1.31"/><rect class="cls-1" x="189.91" y="63.65" width="1.15" height="5.21"/><path class="cls-1" d="M198.16,63.65l-2,4.62a1.41,1.41,0,0,1-2.44,0l-1.9-4.62H193l0,0,1.68,4.07a.2.2,0,0,0,.2.12.19.19,0,0,0,.2-.12l1.77-4.11Z"/><path class="cls-1" d="M199.63,67.1v-.29H202c1.2,0,1.77-.49,1.77-1.54s-.59-1.62-1.77-1.62h-1.65a1.61,1.61,0,0,0-1.83,1.74v1.74a1.61,1.61,0,0,0,1.83,1.73h3.17V67.74h-3.17C199.87,67.74,199.63,67.51,199.63,67.1Zm0-1.7c0-.41.25-.63.7-.63H202c.42,0,.65.18.65.57s-.08.53-.69.53h-2.31Z"/><path class="cls-1" d="M208.46,63.65v1.12H206.6c-.41,0-.59.17-.59.58v3.51h-1.14V65.2c0-1.08.42-1.55,1.43-1.55Z"/><path class="cls-1" d="M213.88,67.26c0,.73-.3,1.6-1.74,1.6h-3V67.74h3c.44,0,.6-.14.6-.5s-.11-.5-.65-.5h-1.21c-1.19,0-1.8-.52-1.8-1.54s.57-1.55,1.71-1.55h2.89v1.12H210.8c-.42,0-.59.14-.59.5s.1.49.65.49h1.19C213.28,65.76,213.88,66.25,213.88,67.26Z"/><rect class="cls-1" x="214.94" y="63.65" width="1.15" height="5.21"/><rect class="cls-1" x="214.94" y="61.74" width="1.17" height="1.31"/><path class="cls-1" d="M218.76,64.77V67.1c0,.52.17.69.62.69h.77v1.07h-1c-1.13,0-1.57-.52-1.57-1.81V64.77h-.68V63.65h.68v-1.2h1.16v1.2h1.4v1.12Z"/><path class="cls-1" d="M226.49,63.65l0,.1-3.07,7.14h-1.24l0-.09.91-2.12a.89.89,0,0,1-.91-.67l-1.74-4.36h1.22v0l1.53,3.78c.06.16.08.17.25.17h.09l1.73-4Z"/></g></g></g></g></svg>