<?xml version="1.0" encoding="UTF-8" standalone="no" ?>
<!DOCTYPE svg PUBLIC "-//W3C//DTD SVG 1.1//EN" "http://www.w3.org/Graphics/SVG/1.1/DTD/svg11.dtd">
<svg xmlns="http://www.w3.org/2000/svg" xmlns:xlink="http://www.w3.org/1999/xlink" version="1.1" width="1080" height="1080" viewBox="0 0 1080 1080" xml:space="preserve">
<desc>Created with Fabric.js 5.2.4</desc>
<defs>
</defs>
<g transform="matrix(1 0 0 1 540 540)" id="1f5d86ab-e3cb-43f0-9711-720cf179ef83"  >
<rect style="stroke: none; stroke-width: 1; stroke-dasharray: none; stroke-linecap: butt; stroke-dashoffset: 0; stroke-linejoin: miter; stroke-miterlimit: 4; fill: rgb(255,255,255); fill-rule: nonzero; opacity: 1; visibility: hidden;" vector-effect="non-scaling-stroke"  x="-540" y="-540" rx="0" ry="0" width="1080" height="1080" />
</g>
<g transform="matrix(1 0 0 1 540 540)" id="bfacac76-4914-4a9a-bdea-fef795d82cdf"  >
</g>
<g transform="matrix(1.09 0 0 1.09 239.45 341.61)"  >
<path style="stroke: none; stroke-width: 1; stroke-dasharray: none; stroke-linecap: butt; stroke-dashoffset: 0; stroke-linejoin: miter; stroke-miterlimit: 4; fill: rgb(229,6,149); fill-rule: nonzero; opacity: 1;" vector-effect="non-scaling-stroke"  transform=" translate(-220.38, -128.41)" d="M 215.47 49.1641 L 215.47 111.458 L 253.661 111.458 L 253.661 146.727 L 215.47 146.727 L 215.47 207.875 L 265.778 207.875 L 265.778 246.81 L 174.992 246.81 L 174.992 10 L 265.778 10 L 265.778 49.1641 L 215.47 49.1641 Z" stroke-linecap="round" />
</g>
<g transform="matrix(1.09 0 0 1.09 374.41 439.56)"  >
<path style="stroke: none; stroke-width: 1; stroke-dasharray: none; stroke-linecap: butt; stroke-dashoffset: 0; stroke-linejoin: miter; stroke-miterlimit: 4; fill: rgb(229,6,149); fill-rule: nonzero; opacity: 1;" vector-effect="non-scaling-stroke"  transform=" translate(-344.6, -218.56)" d="M 289.376 246.836 L 329.85 246.836 C 329.85 260.122 338.083 262.867 344.713 262.867 C 350.886 262.867 359.119 261.034 359.119 251.415 C 359.119 242.025 347.001 238.134 333.049 232.864 C 313.84 225.765 291.202 215.688 291.202 184.084 C 291.202 154.081 313.157 134.847 344.713 134.847 C 375.358 134.847 397.538 156.834 397.538 188.438 L 357.517 188.438 C 357.517 176.069 350.658 173.094 344.71 173.094 C 338.308 173.094 331.448 175.844 331.448 184.088 C 331.448 194.624 344.481 198.057 359.115 203.327 C 378.096 210.2 399.822 219.819 399.822 251.423 C 399.822 282.338 376.956 302.264 344.71 302.264 C 312.463 302.264 289.372 279.822 289.372 246.844 L 289.376 246.836 Z" stroke-linecap="round" />
</g>
<g transform="matrix(1.09 0 0 1.09 518.47 430.34)"  >
<path style="stroke: none; stroke-width: 1; stroke-dasharray: none; stroke-linecap: butt; stroke-dashoffset: 0; stroke-linejoin: miter; stroke-miterlimit: 4; fill: rgb(229,6,149); fill-rule: nonzero; opacity: 1;" vector-effect="non-scaling-stroke"  transform=" translate(-477.18, -210.07)" d="M 423.101 323.328 L 423.101 96.5953 C 423.101 63.8427 445.284 40.9422 477.298 40.9422 C 509.086 40.9422 531.266 63.8427 531.266 96.5953 L 531.266 103.923 L 490.559 103.923 L 490.559 95.2206 C 490.559 81.481 483.014 79.8772 477.294 79.8772 C 471.575 79.8772 463.8 81.481 463.8 95.2206 L 463.8 324.703 C 463.8 338.675 470.892 340.275 477.294 340.275 C 483.467 340.275 490.559 338.671 490.559 324.703 L 490.559 313.938 L 531.266 313.938 L 531.266 323.328 C 531.266 356.306 509.083 379.206 477.298 379.206 C 445.284 379.206 423.101 356.306 423.101 323.328 Z" stroke-linecap="round" />
</g>
<g transform="matrix(1.09 0 0 1.09 602.16 422.15)"  >
<path style="stroke: none; stroke-width: 1; stroke-dasharray: none; stroke-linecap: butt; stroke-dashoffset: 0; stroke-linejoin: miter; stroke-miterlimit: 4; fill: rgb(229,6,149); fill-rule: nonzero; opacity: 1;" vector-effect="non-scaling-stroke"  transform=" translate(-554.21, -202.54)" d="M 532.827 121.693 L 576.275 121.693 L 617.665 283.383 L 576.961 283.383 L 570.788 256.129 L 537.631 256.129 L 531.458 283.383 L 490.751 283.383 L 532.827 121.693 Z M 563.01 221.089 L 554.549 175.513 L 545.402 221.089 L 563.01 221.089 Z" stroke-linecap="round" />
</g>
<g transform="matrix(1.09 0 0 1.09 747.01 380.33)"  >
<path style="stroke: none; stroke-width: 1; stroke-dasharray: none; stroke-linecap: butt; stroke-dashoffset: 0; stroke-linejoin: miter; stroke-miterlimit: 4; fill: rgb(229,6,149); fill-rule: nonzero; opacity: 1;" vector-effect="non-scaling-stroke"  transform=" translate(-687.52, -164.04)" d="M 633.9 44.6982 L 687.411 44.6982 C 718.971 44.6982 741.151 66.224 741.151 105.388 L 741.151 112.033 C 741.151 151.193 718.967 171.806 687.411 171.806 L 674.603 171.806 L 674.603 283.383 L 633.896 283.383 L 633.9 44.6982 Z M 682.153 133.329 C 690.156 133.329 701.134 131.038 701.134 111.574 L 701.134 105.621 C 701.134 86.1535 690.843 83.6332 682.153 83.6332 L 674.607 83.6332 L 674.607 133.329 L 682.153 133.329 Z" stroke-linecap="round" />
</g>
<g transform="matrix(1.09 0 0 1.09 839.62 500.13)"  >
<path style="stroke: none; stroke-width: 1; stroke-dasharray: none; stroke-linecap: butt; stroke-dashoffset: 0; stroke-linejoin: miter; stroke-miterlimit: 4; fill: rgb(229,6,149); fill-rule: nonzero; opacity: 1;" vector-effect="non-scaling-stroke"  transform=" translate(-772.76, -274.3)" d="M 702.986 193.456 L 842.528 193.456 L 842.528 232.62 L 743.465 232.62 L 743.465 257.353 L 819.159 257.353 L 819.159 292.623 L 743.465 292.623 L 743.465 316.21 L 842.528 316.21 L 842.528 355.145 L 702.986 355.145 L 702.986 193.456 Z" stroke-linecap="round" />
</g>
<g transform="matrix(1.09 0 0 1.09 42.1 541.2)"  >
<path style="stroke: none; stroke-width: 1; stroke-dasharray: none; stroke-linecap: butt; stroke-dashoffset: 0; stroke-linejoin: miter; stroke-miterlimit: 4; fill: rgb(229,6,149); fill-rule: nonzero; opacity: 1;" vector-effect="non-scaling-stroke"  transform=" translate(-38.75, -312.1)" d="M 26.5243 266.556 L 10 266.556 L 10 243.167 L 67.4901 243.167 L 67.4901 266.556 L 50.9658 266.556 L 50.9658 381.039 L 26.5206 381.039 L 26.5243 266.556 Z" stroke-linecap="round" />
</g>
<g transform="matrix(1.09 0 0 1.09 109.5 563.65)"  >
<path style="stroke: none; stroke-width: 1; stroke-dasharray: none; stroke-linecap: butt; stroke-dashoffset: 0; stroke-linejoin: miter; stroke-miterlimit: 4; fill: rgb(229,6,149); fill-rule: nonzero; opacity: 1;" vector-effect="non-scaling-stroke"  transform=" translate(-100.78, -332.76)" d="M 68.9678 284.487 L 93.2742 284.487 L 93.2742 322.644 L 108.295 322.644 L 108.295 284.487 L 132.601 284.487 L 132.601 381.043 L 108.295 381.043 L 108.295 343.704 L 93.2742 343.704 L 93.2742 381.043 L 68.9678 381.043 L 68.9678 284.487 Z" stroke-linecap="round" />
</g>
<g transform="matrix(1.09 0 0 1.09 144.82 769.66)"  >
<path style="stroke: none; stroke-width: 1; stroke-dasharray: none; stroke-linecap: butt; stroke-dashoffset: 0; stroke-linejoin: miter; stroke-miterlimit: 4; fill: rgb(229,6,149); fill-rule: nonzero; opacity: 1;" vector-effect="non-scaling-stroke"  transform=" translate(-133.29, -522.38)" d="M 178.682 622 L 87.8994 622 L 87.8994 583.065 L 138.207 583.065 L 138.207 540.697 L 100.017 540.697 L 100.017 505.428 L 138.207 505.428 L 138.207 461.914 L 87.8994 461.914 L 87.8994 422.75 L 178.682 422.75 L 178.682 622 Z" stroke-linecap="round" />
</g>
<g transform="matrix(1.09 0 0 1.09 212.63 563.65)"  >
<path style="stroke: none; stroke-width: 1; stroke-dasharray: none; stroke-linecap: butt; stroke-dashoffset: 0; stroke-linejoin: miter; stroke-miterlimit: 4; fill: rgb(229,6,149); fill-rule: nonzero; opacity: 1;" vector-effect="non-scaling-stroke"  transform=" translate(-195.7, -332.76)" d="M 149.808 284.487 L 241.584 284.487 L 241.584 307.876 L 173.979 307.876 L 173.979 322.644 L 234.346 322.644 L 234.346 343.708 L 173.979 343.708 L 173.979 357.793 L 241.584 357.793 L 241.584 381.043 L 149.808 381.043 L 149.808 284.487 Z" stroke-linecap="round" />
</g>
<g transform="matrix(1.09 0 0 1.09 290.14 698.17)"  >
<path style="stroke: none; stroke-width: 1; stroke-dasharray: none; stroke-linecap: butt; stroke-dashoffset: 0; stroke-linejoin: miter; stroke-miterlimit: 4; fill: rgb(229,6,149); fill-rule: nonzero; opacity: 1;" vector-effect="non-scaling-stroke"  transform=" translate(-267.04, -456.58)" d="M 199.936 422.833 L 240.643 422.833 L 258.48 522.229 L 293.437 328.632 L 334.14 328.632 L 279.977 584.522 L 236.757 584.522 L 199.943 422.833 L 199.936 422.833 Z" stroke-linecap="round" />
</g>
<g transform="matrix(1.09 0 0 1.09 419.05 733.1)"  >
<path style="stroke: none; stroke-width: 1; stroke-dasharray: none; stroke-linecap: butt; stroke-dashoffset: 0; stroke-linejoin: miter; stroke-miterlimit: 4; fill: rgb(229,6,149); fill-rule: nonzero; opacity: 1;" vector-effect="non-scaling-stroke"  transform=" translate(-385.68, -488.73)" d="M 340.291 392.856 L 431.074 392.856 L 431.074 432.02 L 380.765 432.02 L 380.765 471.778 L 418.956 471.778 L 418.956 507.047 L 380.765 507.047 L 380.765 545.659 L 431.074 545.659 L 431.074 584.594 L 340.291 584.594 L 340.291 392.856 Z" stroke-linecap="round" />
</g>
<g transform="matrix(1.09 0 0 1.09 557.16 769.66)"  >
<path style="stroke: none; stroke-width: 1; stroke-dasharray: none; stroke-linecap: butt; stroke-dashoffset: 0; stroke-linejoin: miter; stroke-miterlimit: 4; fill: rgb(229,6,149); fill-rule: nonzero; opacity: 1;" vector-effect="non-scaling-stroke"  transform=" translate(-512.79, -522.37)" d="M 459.165 422.75 L 512.447 422.75 C 544.232 422.75 566.415 444.276 566.415 483.44 L 566.415 525.354 C 566.415 548.712 558.641 565.43 545.375 575.279 L 565.043 621.996 L 520.908 621.996 L 508.558 585.123 L 499.868 585.123 L 499.868 621.996 L 459.165 621.996 L 459.165 422.75 Z M 507.414 546.65 C 515.417 546.65 526.166 544.359 526.166 524.895 L 526.166 483.669 C 526.166 464.202 516.1 461.681 507.414 461.681 L 499.864 461.681 L 499.864 546.65 L 507.414 546.65 Z" stroke-linecap="round" />
</g>
<g transform="matrix(1.09 0 0 1.09 664.42 689.46)"  >
<path style="stroke: none; stroke-width: 1; stroke-dasharray: none; stroke-linecap: butt; stroke-dashoffset: 0; stroke-linejoin: miter; stroke-miterlimit: 4; fill: rgb(229,6,149); fill-rule: nonzero; opacity: 1;" vector-effect="non-scaling-stroke"  transform=" translate(-611.51, -448.56)" d="M 591.16 418.603 L 550.453 313.254 L 592.301 313.254 L 611.51 373.032 L 631.174 313.254 L 672.563 313.254 L 631.86 418.603 L 631.86 583.869 L 591.153 583.869 L 591.153 418.603 L 591.16 418.603 Z" stroke-linecap="round" />
</g>
<g transform="matrix(1.09 0 0 1.09 777.43 730.42)"  >
<path style="stroke: none; stroke-width: 1; stroke-dasharray: none; stroke-linecap: butt; stroke-dashoffset: 0; stroke-linejoin: miter; stroke-miterlimit: 4; fill: rgb(229,6,149); fill-rule: nonzero; opacity: 1;" vector-effect="non-scaling-stroke"  transform=" translate(-715.53, -486.25)" d="M 661.443 388.645 L 715.637 388.645 C 747.425 388.645 769.609 410.171 769.609 449.335 L 769.609 524.092 C 769.609 563.023 747.425 583.865 715.637 583.865 L 661.443 583.865 L 661.443 388.645 Z M 710.607 545.392 C 718.611 545.392 729.356 543.101 729.356 523.637 L 729.356 449.568 C 729.356 430.101 719.293 427.58 710.607 427.58 L 702.143 427.58 L 702.143 545.392 L 710.607 545.392 Z" stroke-linecap="round" />
</g>
<g transform="matrix(1.09 0 0 1.09 917.22 712.45)"  >
<path style="stroke: none; stroke-width: 1; stroke-dasharray: none; stroke-linecap: butt; stroke-dashoffset: 0; stroke-linejoin: miter; stroke-miterlimit: 4; fill: rgb(229,6,149); fill-rule: nonzero; opacity: 1;" vector-effect="non-scaling-stroke"  transform=" translate(-844.18, -469.72)" d="M 822.798 388.875 L 866.25 388.875 L 907.639 550.564 L 866.932 550.564 L 860.759 523.31 L 827.602 523.31 L 821.429 550.564 L 780.722 550.564 L 822.798 388.875 Z M 852.985 488.27 L 844.524 442.695 L 835.376 488.27 L 852.985 488.27 Z" stroke-linecap="round" />
</g>
<g transform="matrix(1.09 0 0 1.09 1013.66 616.45)"  >
<path style="stroke: none; stroke-width: 1; stroke-dasharray: none; stroke-linecap: butt; stroke-dashoffset: 0; stroke-linejoin: miter; stroke-miterlimit: 4; fill: rgb(229,6,149); fill-rule: nonzero; opacity: 1;" vector-effect="non-scaling-stroke"  transform=" translate(-932.94, -381.36)" d="M 912.59 378.215 L 871.883 272.866 L 913.73 272.866 L 932.939 332.643 L 952.603 272.866 L 993.996 272.866 L 953.289 378.215 L 953.289 489.859 L 912.582 489.859 L 912.582 378.215 L 912.59 378.215 Z" stroke-linecap="round" />
</g>
<g transform="matrix(1.09 0 0 1.09 228.59 330.74)"  >
<path style="stroke: none; stroke-width: 1; stroke-dasharray: none; stroke-linecap: butt; stroke-dashoffset: 0; stroke-linejoin: miter; stroke-miterlimit: 4; fill: rgb(255,255,255); fill-rule: nonzero; opacity: 1;" vector-effect="non-scaling-stroke"  transform=" translate(-210.38, -118.41)" d="M 205.47 39.1641 L 205.47 101.458 L 243.661 101.458 L 243.661 136.727 L 205.47 136.727 L 205.47 197.875 L 255.778 197.875 L 255.778 236.81 L 164.992 236.81 L 164.992 0 L 255.778 0 L 255.778 39.1641 L 205.47 39.1641 Z" stroke-linecap="round" />
</g>
<g transform="matrix(1.09 0 0 1.09 363.55 428.69)"  >
<path style="stroke: none; stroke-width: 1; stroke-dasharray: none; stroke-linecap: butt; stroke-dashoffset: 0; stroke-linejoin: miter; stroke-miterlimit: 4; fill: rgb(255,255,255); fill-rule: nonzero; opacity: 1;" vector-effect="non-scaling-stroke"  transform=" translate(-334.6, -208.56)" d="M 279.376 236.836 L 319.85 236.836 C 319.85 250.122 328.083 252.867 334.713 252.867 C 340.886 252.867 349.119 251.034 349.119 241.415 C 349.119 232.025 337.001 228.134 323.049 222.864 C 303.84 215.765 281.202 205.688 281.202 174.084 C 281.202 144.081 303.157 124.847 334.713 124.847 C 365.358 124.847 387.538 146.834 387.538 178.438 L 347.517 178.438 C 347.517 166.069 340.658 163.094 334.71 163.094 C 328.308 163.094 321.448 165.844 321.448 174.088 C 321.448 184.624 334.481 188.057 349.115 193.327 C 368.096 200.2 389.822 209.819 389.822 241.423 C 389.822 272.338 366.956 292.264 334.71 292.264 C 302.463 292.264 279.372 269.822 279.372 236.844 L 279.376 236.836 Z" stroke-linecap="round" />
</g>
<g transform="matrix(1.09 0 0 1.09 507.6 419.48)"  >
<path style="stroke: none; stroke-width: 1; stroke-dasharray: none; stroke-linecap: butt; stroke-dashoffset: 0; stroke-linejoin: miter; stroke-miterlimit: 4; fill: rgb(255,255,255); fill-rule: nonzero; opacity: 1;" vector-effect="non-scaling-stroke"  transform=" translate(-467.18, -200.07)" d="M 413.101 313.328 L 413.101 86.5953 C 413.101 53.8427 435.284 30.9422 467.298 30.9422 C 499.086 30.9422 521.266 53.8427 521.266 86.5953 L 521.266 93.9233 L 480.559 93.9233 L 480.559 85.2206 C 480.559 71.481 473.014 69.8772 467.294 69.8772 C 461.575 69.8772 453.8 71.481 453.8 85.2206 L 453.8 314.703 C 453.8 328.675 460.892 330.275 467.294 330.275 C 473.467 330.275 480.559 328.671 480.559 314.703 L 480.559 303.938 L 521.266 303.938 L 521.266 313.328 C 521.266 346.306 499.083 369.206 467.298 369.206 C 435.284 369.206 413.101 346.306 413.101 313.328 Z" stroke-linecap="round" />
</g>
<g transform="matrix(1.09 0 0 1.09 591.29 411.29)"  >
<path style="stroke: none; stroke-width: 1; stroke-dasharray: none; stroke-linecap: butt; stroke-dashoffset: 0; stroke-linejoin: miter; stroke-miterlimit: 4; fill: rgb(255,255,255); fill-rule: nonzero; opacity: 1;" vector-effect="non-scaling-stroke"  transform=" translate(-544.21, -192.54)" d="M 522.827 111.693 L 566.275 111.693 L 607.665 273.383 L 566.961 273.383 L 560.788 246.129 L 527.631 246.129 L 521.458 273.383 L 480.751 273.383 L 522.827 111.693 Z M 553.01 211.089 L 544.549 165.513 L 535.402 211.089 L 553.01 211.089 Z" stroke-linecap="round" />
</g>
<g transform="matrix(1.09 0 0 1.09 736.14 369.46)"  >
<path style="stroke: none; stroke-width: 1; stroke-dasharray: none; stroke-linecap: butt; stroke-dashoffset: 0; stroke-linejoin: miter; stroke-miterlimit: 4; fill: rgb(255,255,255); fill-rule: nonzero; opacity: 1;" vector-effect="non-scaling-stroke"  transform=" translate(-677.52, -154.04)" d="M 623.9 34.6982 L 677.411 34.6982 C 708.971 34.6982 731.151 56.224 731.151 95.3881 L 731.151 102.033 C 731.151 141.193 708.967 161.806 677.411 161.806 L 664.603 161.806 L 664.603 273.383 L 623.896 273.383 L 623.9 34.6982 Z M 672.153 123.329 C 680.156 123.329 691.134 121.038 691.134 101.574 L 691.134 95.621 C 691.134 76.1535 680.843 73.6332 672.153 73.6332 L 664.607 73.6332 L 664.607 123.329 L 672.153 123.329 Z" stroke-linecap="round" />
</g>
<g transform="matrix(1.09 0 0 1.09 828.75 489.26)"  >
<path style="stroke: none; stroke-width: 1; stroke-dasharray: none; stroke-linecap: butt; stroke-dashoffset: 0; stroke-linejoin: miter; stroke-miterlimit: 4; fill: rgb(255,255,255); fill-rule: nonzero; opacity: 1;" vector-effect="non-scaling-stroke"  transform=" translate(-762.76, -264.3)" d="M 692.986 183.456 L 832.528 183.456 L 832.528 222.62 L 733.465 222.62 L 733.465 247.353 L 809.159 247.353 L 809.159 282.623 L 733.465 282.623 L 733.465 306.21 L 832.528 306.21 L 832.528 345.145 L 692.986 345.145 L 692.986 183.456 Z" stroke-linecap="round" />
</g>
<g transform="matrix(1.09 0 0 1.09 31.23 530.33)"  >
<path style="stroke: none; stroke-width: 1; stroke-dasharray: none; stroke-linecap: butt; stroke-dashoffset: 0; stroke-linejoin: miter; stroke-miterlimit: 4; fill: rgb(255,255,255); fill-rule: nonzero; opacity: 1;" vector-effect="non-scaling-stroke"  transform=" translate(-28.75, -302.1)" d="M 16.5243 256.556 L 0 256.556 L 0 233.167 L 57.4901 233.167 L 57.4901 256.556 L 40.9658 256.556 L 40.9658 371.039 L 16.5206 371.039 L 16.5243 256.556 Z" stroke-linecap="round" />
</g>
<g transform="matrix(1.09 0 0 1.09 98.64 552.78)"  >
<path style="stroke: none; stroke-width: 1; stroke-dasharray: none; stroke-linecap: butt; stroke-dashoffset: 0; stroke-linejoin: miter; stroke-miterlimit: 4; fill: rgb(255,255,255); fill-rule: nonzero; opacity: 1;" vector-effect="non-scaling-stroke"  transform=" translate(-90.78, -322.76)" d="M 58.9678 274.487 L 83.2742 274.487 L 83.2742 312.644 L 98.2946 312.644 L 98.2946 274.487 L 122.601 274.487 L 122.601 371.043 L 98.2946 371.043 L 98.2946 333.704 L 83.2742 333.704 L 83.2742 371.043 L 58.9678 371.043 L 58.9678 274.487 Z" stroke-linecap="round" />
</g>
<g transform="matrix(1.09 0 0 1.09 133.96 758.8)"  >
<path style="stroke: none; stroke-width: 1; stroke-dasharray: none; stroke-linecap: butt; stroke-dashoffset: 0; stroke-linejoin: miter; stroke-miterlimit: 4; fill: rgb(255,255,255); fill-rule: nonzero; opacity: 1;" vector-effect="non-scaling-stroke"  transform=" translate(-123.29, -512.38)" d="M 168.682 612 L 77.8994 612 L 77.8994 573.065 L 128.207 573.065 L 128.207 530.697 L 90.017 530.697 L 90.017 495.428 L 128.207 495.428 L 128.207 451.914 L 77.8994 451.914 L 77.8994 412.75 L 168.682 412.75 L 168.682 612 Z" stroke-linecap="round" />
</g>
<g transform="matrix(1.09 0 0 1.09 201.76 552.78)"  >
<path style="stroke: none; stroke-width: 1; stroke-dasharray: none; stroke-linecap: butt; stroke-dashoffset: 0; stroke-linejoin: miter; stroke-miterlimit: 4; fill: rgb(255,255,255); fill-rule: nonzero; opacity: 1;" vector-effect="non-scaling-stroke"  transform=" translate(-185.7, -322.76)" d="M 139.808 274.487 L 231.584 274.487 L 231.584 297.876 L 163.979 297.876 L 163.979 312.644 L 224.346 312.644 L 224.346 333.708 L 163.979 333.708 L 163.979 347.793 L 231.584 347.793 L 231.584 371.043 L 139.808 371.043 L 139.808 274.487 Z" stroke-linecap="round" />
</g>
<g transform="matrix(1.09 0 0 1.09 279.28 687.31)"  >
<path style="stroke: none; stroke-width: 1; stroke-dasharray: none; stroke-linecap: butt; stroke-dashoffset: 0; stroke-linejoin: miter; stroke-miterlimit: 4; fill: rgb(255,255,255); fill-rule: nonzero; opacity: 1;" vector-effect="non-scaling-stroke"  transform=" translate(-257.04, -446.58)" d="M 189.936 412.833 L 230.643 412.833 L 248.48 512.229 L 283.437 318.632 L 324.14 318.632 L 269.977 574.522 L 226.757 574.522 L 189.943 412.833 L 189.936 412.833 Z" stroke-linecap="round" />
</g>
<g transform="matrix(1.09 0 0 1.09 408.19 722.24)"  >
<path style="stroke: none; stroke-width: 1; stroke-dasharray: none; stroke-linecap: butt; stroke-dashoffset: 0; stroke-linejoin: miter; stroke-miterlimit: 4; fill: rgb(255,255,255); fill-rule: nonzero; opacity: 1;" vector-effect="non-scaling-stroke"  transform=" translate(-375.68, -478.73)" d="M 330.291 382.856 L 421.074 382.856 L 421.074 422.02 L 370.765 422.02 L 370.765 461.778 L 408.956 461.778 L 408.956 497.047 L 370.765 497.047 L 370.765 535.659 L 421.074 535.659 L 421.074 574.594 L 330.291 574.594 L 330.291 382.856 Z" stroke-linecap="round" />
</g>
<g transform="matrix(1.09 0 0 1.09 546.29 758.8)"  >
<path style="stroke: none; stroke-width: 1; stroke-dasharray: none; stroke-linecap: butt; stroke-dashoffset: 0; stroke-linejoin: miter; stroke-miterlimit: 4; fill: rgb(255,255,255); fill-rule: nonzero; opacity: 1;" vector-effect="non-scaling-stroke"  transform=" translate(-502.79, -512.37)" d="M 449.165 412.75 L 502.447 412.75 C 534.232 412.75 556.415 434.276 556.415 473.44 L 556.415 515.354 C 556.415 538.712 548.641 555.43 535.375 565.279 L 555.043 611.996 L 510.908 611.996 L 498.558 575.123 L 489.868 575.123 L 489.868 611.996 L 449.165 611.996 L 449.165 412.75 Z M 497.414 536.65 C 505.417 536.65 516.166 534.359 516.166 514.895 L 516.166 473.669 C 516.166 454.202 506.1 451.681 497.414 451.681 L 489.864 451.681 L 489.864 536.65 L 497.414 536.65 Z" stroke-linecap="round" />
</g>
<g transform="matrix(1.09 0 0 1.09 653.55 678.6)"  >
<path style="stroke: none; stroke-width: 1; stroke-dasharray: none; stroke-linecap: butt; stroke-dashoffset: 0; stroke-linejoin: miter; stroke-miterlimit: 4; fill: rgb(255,255,255); fill-rule: nonzero; opacity: 1;" vector-effect="non-scaling-stroke"  transform=" translate(-601.51, -438.56)" d="M 581.16 408.603 L 540.453 303.254 L 582.301 303.254 L 601.51 363.032 L 621.174 303.254 L 662.563 303.254 L 621.86 408.603 L 621.86 573.869 L 581.153 573.869 L 581.153 408.603 L 581.16 408.603 Z" stroke-linecap="round" />
</g>
<g transform="matrix(1.09 0 0 1.09 766.57 719.55)"  >
<path style="stroke: none; stroke-width: 1; stroke-dasharray: none; stroke-linecap: butt; stroke-dashoffset: 0; stroke-linejoin: miter; stroke-miterlimit: 4; fill: rgb(255,255,255); fill-rule: nonzero; opacity: 1;" vector-effect="non-scaling-stroke"  transform=" translate(-705.53, -476.25)" d="M 651.443 378.645 L 705.637 378.645 C 737.425 378.645 759.609 400.171 759.609 439.335 L 759.609 514.092 C 759.609 553.023 737.425 573.865 705.637 573.865 L 651.443 573.865 L 651.443 378.645 Z M 700.607 535.392 C 708.611 535.392 719.356 533.101 719.356 513.637 L 719.356 439.568 C 719.356 420.101 709.293 417.58 700.607 417.58 L 692.143 417.58 L 692.143 535.392 L 700.607 535.392 Z" stroke-linecap="round" />
</g>
<g transform="matrix(1.09 0 0 1.09 906.35 701.59)"  >
<path style="stroke: none; stroke-width: 1; stroke-dasharray: none; stroke-linecap: butt; stroke-dashoffset: 0; stroke-linejoin: miter; stroke-miterlimit: 4; fill: rgb(255,255,255); fill-rule: nonzero; opacity: 1;" vector-effect="non-scaling-stroke"  transform=" translate(-834.18, -459.72)" d="M 812.798 378.875 L 856.25 378.875 L 897.639 540.564 L 856.932 540.564 L 850.759 513.31 L 817.602 513.31 L 811.429 540.564 L 770.722 540.564 L 812.798 378.875 Z M 842.985 478.27 L 834.524 432.695 L 825.376 478.27 L 842.985 478.27 Z" stroke-linecap="round" />
</g>
<g transform="matrix(1.09 0 0 1.09 1002.79 605.59)"  >
<path style="stroke: none; stroke-width: 1; stroke-dasharray: none; stroke-linecap: butt; stroke-dashoffset: 0; stroke-linejoin: miter; stroke-miterlimit: 4; fill: rgb(255,255,255); fill-rule: nonzero; opacity: 1;" vector-effect="non-scaling-stroke"  transform=" translate(-922.94, -371.36)" d="M 902.59 368.215 L 861.883 262.866 L 903.73 262.866 L 922.939 322.643 L 942.603 262.866 L 983.996 262.866 L 943.289 368.215 L 943.289 479.859 L 902.582 479.859 L 902.582 368.215 L 902.59 368.215 Z" stroke-linecap="round" />
</g>
</svg>