<?xml version="1.0" encoding="UTF-8" standalone="no" ?>
<!DOCTYPE svg PUBLIC "-//W3C//DTD SVG 1.1//EN" "http://www.w3.org/Graphics/SVG/1.1/DTD/svg11.dtd">
<svg xmlns="http://www.w3.org/2000/svg" xmlns:xlink="http://www.w3.org/1999/xlink" version="1.1" width="1080" height="1080" viewBox="0 0 1080 1080" xml:space="preserve">
<desc>Created with Fabric.js 5.2.4</desc>
<defs>
</defs>
<g transform="matrix(1 0 0 1 540 540)" id="9411d2cf-9435-4c79-a0cf-941476595bf8"  >
<rect style="stroke: none; stroke-width: 1; stroke-dasharray: none; stroke-linecap: butt; stroke-dashoffset: 0; stroke-linejoin: miter; stroke-miterlimit: 4; fill: rgb(255,255,255); fill-rule: nonzero; opacity: 1; visibility: hidden;" vector-effect="non-scaling-stroke"  x="-540" y="-540" rx="0" ry="0" width="1080" height="1080" />
</g>
<g transform="matrix(1 0 0 1 540 540)" id="9522ac51-f01e-4d55-98de-b7a97a848529"  >
</g>
<g transform="matrix(13.5 0 0 13.5 540 540)"  >
<path style="stroke: none; stroke-width: 1; stroke-dasharray: none; stroke-linecap: butt; stroke-dashoffset: 0; stroke-linejoin: miter; stroke-miterlimit: 4; fill: rgb(229,6,149); fill-rule: nonzero; opacity: 1;" vector-effect="non-scaling-stroke"  transform=" translate(-40, -40)" d="M 80 0 L 0 0 L 0 80 L 80 80 L 80 0 Z" stroke-linecap="round" />
</g>
<g transform="matrix(13.5 0 0 13.5 707.77 499.59)"  >
<path style="stroke: none; stroke-width: 1; stroke-dasharray: none; stroke-linecap: butt; stroke-dashoffset: 0; stroke-linejoin: miter; stroke-miterlimit: 4; fill: rgb(255,255,255); fill-rule: nonzero; opacity: 1;" vector-effect="non-scaling-stroke"  transform=" translate(-52.43, -37.01)" d="M 66.1798 20.2844 C 65.7909 19.7095 65.1902 19.3118 64.5089 19.1784 C 63.8277 19.0451 63.1213 19.1868 62.5443 19.5726 L 60.4702 20.9659 L 59.0776 18.8918 C 58.5907 18.3007 57.9137 17.8968 57.1621 17.7493 C 56.4106 17.6018 55.6311 17.7197 54.9569 18.083 L 52.8887 19.4815 L 51.4961 17.4074 C 51.0565 16.8236 50.4167 16.4228 49.6995 16.2821 C 48.9824 16.1414 48.2385 16.2707 47.6109 16.6452 L 45.5369 18.0385 L 44.145 15.9644 C 43.8584 15.5363 43.4517 15.2024 42.9759 15.0046 C 42.5002 14.8068 41.9766 14.754 41.471 14.8528 C 40.9653 14.9515 40.5001 15.1975 40.1337 15.5597 C 39.7673 15.922 39.5162 16.3844 39.4117 16.8889 L 38.2324 22.9126 L 56.6939 41.3755 C 57.1094 41.7892 57.4355 42.2838 57.6521 42.8286 C 57.8687 43.3734 57.9712 43.9569 57.9532 44.543 C 57.9532 44.5756 57.9532 44.6059 57.9532 44.6341 C 57.9514 45.9178 57.4407 47.1484 56.533 48.0561 C 55.6252 48.9638 54.3946 49.4745 53.1109 49.4763 L 52.8383 49.4763 L 52.8383 49.7511 C 52.7994 51.0707 52.2576 52.3256 51.3239 53.259 C 50.3902 54.1923 49.135 54.7335 47.8154 54.7718 L 47.5421 54.7718 L 47.5421 55.0474 C 47.5408 55.4421 47.491 55.8352 47.3939 56.2178 L 47.6576 56.6096 C 48.0972 57.1934 48.7371 57.5942 49.4542 57.7349 C 50.1713 57.8756 50.9152 57.7463 51.5428 57.3718 L 53.6169 55.9785 L 55.0095 58.0489 C 55.2958 58.4765 55.702 58.8101 56.1771 59.0079 C 56.6522 59.2057 57.1752 59.2589 57.6804 59.1608 C 58.1856 59.0628 58.6506 58.8178 59.0173 58.4566 C 59.3839 58.0954 59.6357 57.6341 59.7413 57.1304 L 66.5806 22.2089 C 66.7028 21.5397 66.559 20.8492 66.1798 20.2844 Z" stroke-linecap="round" />
</g>
<g transform="matrix(13.5 0 0 13.5 440.35 540.32)"  >
<path style="stroke: none; stroke-width: 1; stroke-dasharray: none; stroke-linecap: butt; stroke-dashoffset: 0; stroke-linejoin: miter; stroke-miterlimit: 4; fill: rgb(255,255,255); fill-rule: nonzero; opacity: 1;" vector-effect="non-scaling-stroke"  transform=" translate(-32.62, -40.02)" d="M 54.9871 42.8148 L 29.8264 17.6511 C 29.4578 17.2918 28.9914 17.0493 28.4856 16.954 C 27.9798 16.8586 27.4571 16.9147 26.983 17.1151 C 26.5089 17.3155 26.1045 17.6514 25.8205 18.0806 C 25.5365 18.5099 25.3855 19.0134 25.3864 19.5281 L 25.3864 22.0259 L 22.8886 22.0259 C 22.5048 22.0263 22.1257 22.1111 21.7784 22.2745 C 21.4311 22.4378 21.124 22.6757 20.879 22.9711 C 20.5786 23.2159 20.3364 23.5244 20.1699 23.8743 C 20.0034 24.2241 19.9166 24.6066 19.916 24.9941 L 19.916 27.4918 L 17.4234 27.4918 C 17.0609 27.4922 16.7024 27.568 16.3708 27.7145 C 16.0392 27.8611 15.7418 28.0751 15.4975 28.343 C 15.2226 28.5876 15.0024 28.8875 14.8514 29.2231 C 14.7004 29.5587 14.6219 29.9224 14.6212 30.2904 L 14.6212 32.7874 L 12.1271 32.7874 C 11.6125 32.7865 11.109 32.9375 10.6798 33.2214 C 10.2506 33.5053 9.91472 33.9096 9.71424 34.3835 C 9.51375 34.8575 9.45758 35.3801 9.55277 35.8859 C 9.64795 36.3916 9.89026 36.858 10.2493 37.2267 L 35.4071 62.3919 C 35.7756 62.7527 36.2425 62.9966 36.7492 63.0928 C 37.2559 63.1889 37.7797 63.1331 38.2548 62.9323 C 38.7298 62.7315 39.1349 62.3947 39.419 61.9643 C 39.7031 61.5339 39.8536 61.0291 39.8516 60.5133 L 39.8516 58.0156 L 42.3471 58.0156 C 43.0865 57.9407 43.7796 57.621 44.3165 57.1071 C 44.8533 56.5932 45.203 55.9147 45.3101 55.1793 C 45.3101 55.1356 45.3101 55.0919 45.3101 55.0474 L 45.3101 52.5496 L 47.8056 52.5496 C 48.5354 52.5107 49.2251 52.2034 49.742 51.6868 C 50.259 51.1703 50.5668 50.4809 50.6064 49.7511 L 50.6064 47.2541 L 53.1108 47.2541 C 53.6253 47.2547 54.1286 47.1035 54.5575 46.8195 C 54.9865 46.5354 55.3222 46.1312 55.5225 45.6572 C 55.7228 45.1833 55.7788 44.6609 55.6836 44.1553 C 55.5884 43.6497 55.3461 43.1834 54.9871 42.8148 Z M 44.8449 44.1726 L 36.7708 52.2467 C 36.1752 52.8419 35.3676 53.1762 34.5256 53.1762 C 33.6836 53.1762 32.876 52.8419 32.2804 52.2467 L 20.3916 40.3607 C 20.0967 40.0659 19.8627 39.7159 19.7032 39.3307 C 19.5436 38.9454 19.4614 38.5325 19.4614 38.1156 C 19.4614 37.6986 19.5436 37.2857 19.7032 36.9004 C 19.8627 36.5152 20.0967 36.1652 20.3916 35.8704 L 28.4656 27.7963 C 29.0612 27.2011 29.8688 26.8668 30.7108 26.8668 C 31.5528 26.8668 32.3604 27.2011 32.956 27.7963 L 44.8449 39.6822 C 45.1398 39.977 45.3737 40.3271 45.5333 40.7123 C 45.6929 41.0975 45.775 41.5104 45.775 41.9274 C 45.775 42.3444 45.6929 42.7573 45.5333 43.1425 C 45.3737 43.5278 45.1398 43.8778 44.8449 44.1726 Z" stroke-linecap="round" />
</g>
</svg>